<?xml version="1.0" encoding="UTF-8" ?>
<!DOCTYPE svg PUBLIC "-//W3C//DTD SVG 1.1//EN" "http://www.w3.org/Graphics/SVG/1.1/DTD/svg11.dtd">
<svg width="507pt" height="493pt" viewBox="0 0 507 493" version="1.1" xmlns="http://www.w3.org/2000/svg">
<g id="#dcbf78ff">
<path fill="#dcbf78" opacity="1.00" d=" M 287.43 126.62 C 294.33 128.96 300.98 132.93 305.41 138.83 C 303.61 139.47 302.02 140.64 301.28 142.46 C 299.76 144.68 301.96 146.98 302.58 149.11 C 301.98 149.99 301.27 150.82 300.81 151.79 C 300.91 154.22 302.46 156.30 303.41 158.46 C 300.13 160.33 296.97 162.41 293.71 164.31 C 293.24 162.07 292.00 159.56 293.44 157.41 C 295.33 154.39 293.95 150.82 293.68 147.57 C 295.27 146.65 296.90 145.79 298.55 144.96 C 298.49 137.34 292.58 131.54 287.43 126.62 Z" />
</g>
<g id="#ba9b5fff">
<path fill="#ba9b5f" opacity="1.00" d=" M 190.71 128.72 C 198.48 125.50 208.41 128.08 213.26 135.03 C 213.22 135.39 213.14 136.11 213.10 136.47 C 212.11 136.06 211.13 135.66 210.14 135.26 C 209.79 135.59 209.07 136.27 208.72 136.61 C 208.74 137.71 208.77 138.81 208.79 139.91 C 208.45 139.65 207.76 139.15 207.41 138.89 C 203.76 134.96 197.86 133.81 192.90 135.74 C 194.95 134.68 194.36 132.27 194.41 130.40 C 193.17 129.84 191.94 129.28 190.71 128.72 Z" />
</g>
<g id="#aa884cff">
<path fill="#aa884c" opacity="1.00" d=" M 182.30 135.38 C 184.40 132.39 187.60 130.49 190.71 128.72 C 191.94 129.28 193.17 129.84 194.41 130.40 C 194.36 132.27 194.95 134.68 192.90 135.74 C 188.67 137.77 186.16 142.41 185.79 146.95 C 185.93 153.05 190.91 157.94 196.65 159.28 C 194.93 160.48 193.17 161.64 191.38 162.75 C 191.92 162.88 193.01 163.13 193.55 163.26 C 192.98 164.04 192.41 164.84 191.85 165.63 C 185.12 163.79 180.05 157.88 178.68 151.13 C 177.86 145.68 178.81 139.77 182.30 135.38 Z" />
</g>
<g id="#c5a75fff">
<path fill="#c5a75f" opacity="1.00" d=" M 210.14 135.26 C 211.13 135.66 212.11 136.06 213.10 136.47 C 213.14 136.11 213.22 135.39 213.26 135.03 C 216.79 138.87 217.64 144.21 218.25 149.19 C 218.38 151.48 218.96 153.70 219.33 155.95 C 218.71 159.34 216.59 162.46 216.93 166.02 C 217.30 167.80 218.60 169.15 219.61 170.60 C 218.77 170.54 217.94 170.51 217.11 170.50 C 216.73 170.67 215.99 171.01 215.61 171.18 L 215.14 171.41 C 213.83 170.78 212.48 170.23 211.21 169.55 C 207.41 166.33 207.09 161.13 205.00 156.89 C 210.82 152.87 211.87 144.33 207.41 138.89 C 207.76 139.15 208.45 139.65 208.79 139.91 C 208.77 138.81 208.74 137.71 208.72 136.61 C 209.07 136.27 209.79 135.59 210.14 135.26 Z" />
</g>
<g id="#b99955ff">
<path fill="#b99955" opacity="1.00" d=" M 311.47 138.34 C 313.80 137.05 316.22 135.49 318.99 135.54 C 325.95 135.55 332.92 135.45 339.88 135.64 C 331.67 141.04 323.09 145.87 315.03 151.49 L 314.84 151.26 C 313.79 149.70 312.35 148.53 310.64 147.81 C 311.36 144.74 313.42 141.36 311.47 138.34 Z" />
</g>
<g id="#ccb067ff">
<path fill="#ccb067" opacity="1.00" d=" M 301.28 142.46 C 302.02 140.64 303.61 139.47 305.41 138.83 C 305.77 139.29 306.48 140.23 306.84 140.69 C 308.39 139.92 309.94 139.15 311.47 138.34 C 313.42 141.36 311.36 144.74 310.64 147.81 C 312.35 148.53 313.79 149.70 314.84 151.26 C 311.11 153.78 307.05 155.79 303.41 158.46 C 302.46 156.30 300.91 154.22 300.81 151.79 C 301.27 150.82 301.98 149.99 302.58 149.11 C 301.96 146.98 299.76 144.68 301.28 142.46 Z" />
</g>
<g id="#e6cf7fff">
<path fill="#e6cf7f" opacity="1.00" d=" M 286.34 151.48 C 288.68 149.98 291.25 148.90 293.68 147.57 C 293.95 150.82 295.33 154.39 293.44 157.41 C 292.00 159.56 293.24 162.07 293.71 164.31 C 292.18 165.30 290.64 166.27 289.09 167.22 C 287.51 164.20 285.89 161.20 283.83 158.48 C 285.56 156.63 288.27 154.14 286.34 151.48 Z" />
</g>
<g id="#d1b56bff">
<path fill="#d1b56b" opacity="1.00" d=" M 219.33 155.95 C 218.96 153.70 218.38 151.48 218.25 149.19 C 222.06 150.76 225.42 153.24 229.21 154.85 L 229.22 155.17 C 229.23 155.90 229.26 157.36 229.27 158.09 C 230.95 158.80 233.41 158.98 233.91 161.10 C 232.09 163.80 230.45 166.66 231.46 170.03 C 229.13 171.51 228.09 174.12 226.98 176.52 C 223.39 174.31 219.22 173.34 215.61 171.18 C 215.99 171.01 216.73 170.67 217.11 170.50 C 217.94 170.51 218.77 170.54 219.61 170.60 C 218.60 169.15 217.30 167.80 216.93 166.02 C 216.59 162.46 218.71 159.34 219.33 155.95 Z" />
</g>
<g id="#f3dd8dff">
<path fill="#f3dd8d" opacity="1.00" d=" M 252.14 169.17 C 263.38 162.99 274.96 157.40 286.34 151.48 C 288.27 154.14 285.56 156.63 283.83 158.48 C 285.89 161.20 287.51 164.20 289.09 167.22 C 278.84 173.88 268.08 179.79 258.03 186.76 C 256.49 185.65 255.01 184.37 255.71 182.30 C 257.09 181.19 259.04 179.96 258.79 177.91 C 258.71 176.32 257.46 175.21 256.36 174.22 C 256.67 173.18 257.68 172.02 256.78 171.00 C 255.96 169.26 253.69 169.57 252.14 169.17 Z" />
</g>
<g id="#dec27bff">
<path fill="#dec27b" opacity="1.00" d=" M 229.22 155.17 C 235.93 158.49 242.44 162.24 248.93 165.98 C 248.67 167.23 247.09 167.31 246.19 167.92 C 241.16 170.25 236.36 173.04 231.51 175.72 C 230.17 176.61 228.53 176.71 226.98 176.52 C 228.09 174.12 229.13 171.51 231.46 170.03 C 230.45 166.66 232.09 163.80 233.91 161.10 C 233.41 158.98 230.95 158.80 229.27 158.09 C 229.26 157.36 229.23 155.90 229.22 155.17 Z" />
</g>
<g id="#bc9b52ff">
<path fill="#bc9b52" opacity="1.00" d=" M 311.57 157.89 C 312.94 157.05 314.29 156.18 315.64 155.30 C 320.24 165.46 319.76 178.13 314.36 187.89 C 310.85 184.98 310.20 180.25 310.47 175.97 C 310.79 172.86 312.88 169.84 311.73 166.68 C 310.87 163.95 311.01 161.08 311.51 158.30 L 311.57 157.89 Z" />
</g>
<g id="#b79a59ff">
<path fill="#b79a59" opacity="1.00" d=" M 196.65 159.28 C 199.62 159.36 202.43 158.29 205.00 156.89 C 207.09 161.13 207.41 166.33 211.21 169.55 C 208.40 168.68 205.90 167.02 203.03 166.36 C 199.28 166.64 195.46 166.92 191.85 165.63 C 192.41 164.84 192.98 164.04 193.55 163.26 C 193.01 163.13 191.92 162.88 191.38 162.75 C 193.17 161.64 194.93 160.48 196.65 159.28 Z" />
</g>
<g id="#caab61ff">
<path fill="#caab61" opacity="1.00" d=" M 304.28 162.72 C 306.38 160.77 309.00 159.60 311.51 158.30 C 311.01 161.08 310.87 163.95 311.73 166.68 C 312.88 169.84 310.79 172.86 310.47 175.97 C 310.20 180.25 310.85 184.98 314.36 187.89 L 314.53 188.09 C 312.16 192.12 309.73 196.18 306.45 199.55 L 306.04 199.61 C 304.61 199.81 303.19 200.05 301.78 200.31 C 301.62 196.74 300.98 193.22 299.78 189.86 C 303.54 181.38 305.64 172.00 304.28 162.72 Z" />
</g>
<g id="#e3c97bff">
<path fill="#e3c97b" opacity="1.00" d=" M 229.49 180.81 C 237.09 177.02 244.46 172.77 252.14 169.17 C 253.69 169.57 255.96 169.26 256.78 171.00 C 257.68 172.02 256.67 173.18 256.36 174.22 C 254.42 174.10 252.07 174.07 251.00 176.03 C 248.68 178.93 252.49 183.09 255.71 182.30 C 255.01 184.37 256.49 185.65 258.03 186.76 C 250.41 190.82 243.47 196.17 235.70 199.87 C 234.61 199.76 233.53 199.61 232.45 199.47 C 232.48 198.49 232.52 197.51 232.55 196.54 C 233.70 196.25 234.85 195.96 235.99 195.68 C 235.21 195.27 234.43 194.86 233.66 194.46 C 235.98 191.65 236.17 187.73 234.52 184.54 C 233.15 182.93 231.22 181.96 229.49 180.81 Z" />
</g>
<g id="#f2db8bff">
<path fill="#f2db8b" opacity="1.00" d=" M 275.42 180.53 C 277.40 180.23 279.01 182.10 280.76 182.80 C 281.68 185.61 285.32 188.37 283.32 191.47 C 283.74 191.49 284.57 191.54 284.99 191.56 C 284.34 193.11 283.61 194.65 283.21 196.30 C 283.38 198.50 284.48 200.61 283.90 202.87 C 275.38 199.15 266.90 195.26 258.31 191.72 C 257.75 190.47 259.79 190.16 260.40 189.48 C 265.59 186.81 270.27 183.28 275.42 180.53 Z" />
</g>
<g id="#d3b76bff">
<path fill="#d3b76b" opacity="1.00" d=" M 223.56 183.67 C 225.58 182.80 227.60 181.93 229.49 180.81 C 231.22 181.96 233.15 182.93 234.52 184.54 C 236.17 187.73 235.98 191.65 233.66 194.46 C 234.43 194.86 235.21 195.27 235.99 195.68 C 234.85 195.96 233.70 196.25 232.55 196.54 C 232.52 197.51 232.48 198.49 232.45 199.47 C 233.53 199.61 234.61 199.76 235.70 199.87 L 236.46 199.96 C 232.51 202.19 228.83 204.93 224.69 206.78 C 225.78 201.57 225.35 196.32 223.58 191.30 C 224.26 190.35 224.94 189.41 225.63 188.47 C 225.07 186.82 224.37 185.21 223.56 183.67 Z" />
</g>
<g id="#e0c983ff">
<path fill="#e0c983" opacity="1.00" d=" M 280.76 182.80 C 285.50 185.34 290.44 187.70 294.79 190.84 C 292.11 195.16 288.70 198.98 286.14 203.38 C 285.57 203.36 284.43 203.33 283.86 203.31 L 283.90 202.87 C 284.48 200.61 283.38 198.50 283.21 196.30 C 283.61 194.65 284.34 193.11 284.99 191.56 C 284.57 191.54 283.74 191.49 283.32 191.47 C 285.32 188.37 281.68 185.61 280.76 182.80 Z" />
</g>
<g id="#c8ab62ff">
<path fill="#c8ab62" opacity="1.00" d=" M 214.05 188.84 C 217.18 187.05 220.46 185.51 223.56 183.67 C 224.37 185.21 225.07 186.82 225.63 188.47 C 224.94 189.41 224.26 190.35 223.58 191.30 C 225.35 196.32 225.78 201.57 224.69 206.78 L 224.65 207.24 C 222.57 208.45 220.50 209.65 218.45 210.91 C 217.92 209.33 217.31 207.79 216.70 206.24 C 217.42 204.85 218.69 203.48 218.25 201.79 C 217.67 198.30 217.10 194.78 217.26 191.23 C 216.19 190.43 215.12 189.63 214.05 188.84 Z" />
</g>
<g id="#c0a05bff">
<path fill="#c0a05b" opacity="1.00" d=" M 204.69 192.83 C 208.10 192.47 210.89 190.21 213.87 188.70 L 214.05 188.84 C 215.12 189.63 216.19 190.43 217.26 191.23 C 217.10 194.78 217.67 198.30 218.25 201.79 C 218.69 203.48 217.42 204.85 216.70 206.24 C 217.31 207.79 217.92 209.33 218.45 210.91 C 217.90 220.00 211.01 228.59 201.94 230.42 C 201.56 230.04 200.80 229.28 200.42 228.90 C 200.68 228.52 201.20 227.78 201.46 227.41 C 200.74 227.06 200.02 226.71 199.31 226.37 C 200.15 226.05 201.00 225.74 201.85 225.43 C 200.64 224.71 199.42 224.02 198.19 223.36 C 203.51 222.82 208.43 219.42 209.91 214.13 C 211.94 208.10 207.92 201.85 202.46 199.37 C 203.88 198.78 205.30 198.18 206.72 197.58 C 205.61 197.06 204.50 196.54 203.40 196.03 C 203.82 194.96 204.25 193.89 204.69 192.83 Z" />
</g>
<g id="#dabf76ff">
<path fill="#dabf76" opacity="1.00" d=" M 290.96 202.70 C 294.10 198.56 296.99 194.23 299.78 189.86 C 300.98 193.22 301.62 196.74 301.78 200.31 C 303.19 200.05 304.61 199.81 306.04 199.61 C 302.91 203.74 299.05 207.32 295.28 210.86 C 293.45 209.34 293.34 207.28 294.26 205.25 C 293.16 204.40 292.06 203.54 290.96 202.70 Z" />
</g>
<g id="#b19253ff">
<path fill="#b19253" opacity="1.00" d=" M 192.83 191.85 C 196.81 190.87 200.96 191.05 204.69 192.83 C 204.25 193.89 203.82 194.96 203.40 196.03 C 204.50 196.54 205.61 197.06 206.72 197.58 C 205.30 198.18 203.88 198.78 202.46 199.37 C 200.15 198.74 197.74 198.75 195.36 198.83 C 193.63 198.26 192.18 197.18 190.96 195.86 C 191.50 194.72 192.03 193.58 192.56 192.44 L 192.83 191.85 Z" />
</g>
<g id="#a48144ff">
<path fill="#a48144" opacity="1.00" d=" M 178.35 211.00 C 178.13 202.60 184.27 194.22 192.56 192.44 C 192.03 193.58 191.50 194.72 190.96 195.86 C 192.18 197.18 193.63 198.26 195.36 198.83 C 190.31 200.23 186.21 204.78 185.79 210.07 C 185.42 213.91 187.32 217.57 189.87 220.31 C 188.03 222.27 187.09 224.76 186.63 227.36 C 181.62 223.55 177.88 217.47 178.35 211.00 Z" />
</g>
<g id="#ccab67ff">
<path fill="#ccab67" opacity="1.00" d=" M 302.02 209.97 C 305.34 206.49 308.23 202.60 311.83 199.39 C 312.07 199.72 312.55 200.37 312.79 200.69 C 312.21 200.98 311.05 201.56 310.47 201.85 C 310.91 205.93 312.14 210.03 311.02 214.13 C 307.92 212.97 304.89 211.62 302.02 209.97 Z" />
</g>
<g id="#c09d56ff">
<path fill="#c09d56" opacity="1.00" d=" M 310.47 201.85 C 311.05 201.56 312.21 200.98 312.79 200.69 C 315.04 201.59 317.07 202.92 319.26 203.95 L 319.21 204.24 C 317.70 208.59 320.23 213.17 323.60 215.86 C 320.88 215.96 318.16 216.11 315.44 216.15 C 313.84 215.80 312.37 215.03 311.02 214.13 C 312.14 210.03 310.91 205.93 310.47 201.85 Z" />
</g>
<g id="#e4cc82ff">
<path fill="#e4cc82" opacity="1.00" d=" M 290.96 202.70 C 292.06 203.54 293.16 204.40 294.26 205.25 C 293.34 207.28 293.45 209.34 295.28 210.86 L 295.46 211.11 C 293.75 212.79 292.48 214.84 290.83 216.56 C 287.67 219.03 287.16 223.14 286.45 226.81 C 285.42 224.25 284.21 221.78 282.82 219.41 C 284.01 213.22 287.25 207.68 290.96 202.70 Z" />
</g>
<g id="#b18f4eff">
<path fill="#b18f4e" opacity="1.00" d=" M 319.21 204.24 C 326.72 207.78 333.60 212.58 340.88 216.58 C 332.42 216.38 323.81 217.40 315.44 216.15 C 318.16 216.11 320.88 215.96 323.60 215.86 C 320.23 213.17 317.70 208.59 319.21 204.24 Z" />
</g>
<g id="#e4cc95fe">
<path fill="#e4cc95" opacity="1.00" d=" M 286.45 226.81 C 287.16 223.14 287.67 219.03 290.83 216.56 C 286.32 223.50 285.99 232.91 290.04 240.14 C 284.63 234.77 281.43 227.07 282.82 219.41 C 284.21 221.78 285.42 224.25 286.45 226.81 Z" />
</g>
<g id="#ae8c51ff">
<path fill="#ae8c51" opacity="1.00" d=" M 186.63 227.36 C 187.09 224.76 188.03 222.27 189.87 220.31 C 192.29 222.15 195.30 222.69 198.19 223.36 C 199.42 224.02 200.64 224.71 201.85 225.43 C 201.00 225.74 200.15 226.05 199.31 226.37 C 200.02 226.71 200.74 227.06 201.46 227.41 C 201.20 227.78 200.68 228.52 200.42 228.90 C 200.80 229.28 201.56 230.04 201.94 230.42 C 196.70 231.27 191.04 230.44 186.63 227.36 Z" />
</g>
<g id="#a4874dff">
<path fill="#a4874d" opacity="1.00" d=" M 84.86 252.98 C 92.88 252.53 100.94 252.79 108.98 252.86 C 118.12 253.33 128.14 257.03 132.77 265.45 C 137.16 272.59 137.36 281.54 135.08 289.43 L 133.95 289.42 C 133.33 289.26 132.09 288.95 131.47 288.79 C 131.95 287.68 132.43 286.56 132.91 285.46 C 130.67 285.75 128.45 286.16 126.25 286.68 C 128.42 280.31 127.53 272.85 123.63 267.33 C 120.19 263.46 115.20 260.79 109.96 260.73 C 104.51 260.50 99.06 260.53 93.61 260.57 C 96.92 260.10 100.25 259.75 103.59 259.48 C 103.94 259.05 104.66 258.20 105.01 257.77 C 104.14 256.95 103.27 256.12 102.40 255.31 C 103.11 255.10 104.52 254.67 105.23 254.46 C 98.29 253.92 91.33 254.28 84.38 253.88 L 84.86 252.98 Z" />
</g>
<g id="#af9255ff">
<path fill="#af9255" opacity="1.00" d=" M 150.20 253.21 L 150.68 253.25 C 154.41 253.65 158.16 253.73 161.90 253.67 C 159.84 255.67 160.09 258.34 161.74 260.50 C 161.11 260.51 159.84 260.53 159.21 260.54 C 159.11 265.41 159.01 270.30 159.27 275.17 C 159.47 275.32 159.87 275.61 160.07 275.75 C 161.84 277.26 164.01 278.12 166.21 278.77 C 163.94 278.96 161.67 279.20 159.40 279.45 C 159.37 280.55 159.33 281.65 159.29 282.76 C 159.02 288.11 159.09 293.46 159.19 298.81 C 167.77 298.90 176.36 299.53 184.94 298.88 C 187.08 298.85 189.40 298.42 191.34 299.57 C 184.82 300.51 177.56 297.77 171.66 301.60 C 172.12 302.07 173.04 303.01 173.50 303.48 C 172.47 303.73 171.45 303.98 170.43 304.23 C 170.49 304.77 170.62 305.85 170.68 306.38 C 163.91 306.39 157.13 306.33 150.36 306.44 C 150.23 288.69 150.54 270.95 150.20 253.21 Z" />
</g>
<g id="#c6b26fff">
<path fill="#c6b26f" opacity="1.00" d=" M 150.68 253.25 C 154.06 252.42 157.55 253.20 160.99 252.89 C 170.38 252.96 179.78 252.62 189.17 252.93 C 191.38 254.45 189.63 258.13 190.16 260.47 C 186.31 260.55 182.47 260.53 178.63 260.48 C 177.27 259.38 175.88 258.32 174.47 257.30 C 176.04 256.69 177.60 256.06 179.14 255.37 C 173.63 253.31 167.67 253.71 161.90 253.67 C 158.16 253.73 154.41 253.65 150.68 253.25 Z" />
</g>
<g id="#d4bd7aff">
<path fill="#d4bd7a" opacity="1.00" d=" M 206.15 253.08 C 208.98 252.81 211.83 252.77 214.66 253.11 C 214.56 268.26 214.61 283.41 214.59 298.56 C 223.97 300.45 233.76 297.86 243.13 299.36 C 239.10 300.21 234.98 299.74 230.91 299.83 C 228.90 299.69 227.59 301.37 226.20 302.51 C 226.85 302.73 228.14 303.18 228.79 303.41 C 226.73 303.94 224.69 304.65 223.26 306.31 C 217.55 306.38 211.84 306.41 206.13 306.41 C 206.14 288.63 206.02 270.86 206.15 253.08 Z" />
</g>
<g id="#eed992ff">
<path fill="#eed992" opacity="1.00" d=" M 256.25 252.93 C 266.27 253.14 276.37 252.39 286.34 253.55 C 281.67 254.82 276.82 254.24 272.06 254.32 C 275.07 255.77 278.36 256.42 281.70 256.44 C 281.92 257.53 282.13 258.62 282.35 259.72 C 276.44 259.76 270.43 259.14 264.61 260.50 C 264.59 273.22 264.62 285.95 264.55 298.67 L 265.98 299.05 C 269.51 299.88 273.29 299.62 276.63 301.22 C 279.20 302.47 282.08 302.36 284.86 302.18 C 282.99 303.44 281.23 304.83 279.55 306.33 C 271.65 306.42 263.74 306.29 255.84 306.36 C 256.63 288.56 255.72 270.72 256.25 252.93 Z" />
</g>
<g id="#b7985aff">
<path fill="#b7985a" opacity="1.00" d=" M 336.90 253.24 C 339.96 252.70 343.07 253.28 346.17 253.12 C 352.50 268.13 359.75 282.73 366.31 297.63 C 367.62 300.50 369.38 303.22 369.99 306.36 C 367.26 306.36 364.54 306.35 361.82 306.41 C 358.91 302.50 358.18 297.33 355.17 293.56 C 350.88 291.94 346.18 293.04 341.71 292.50 C 340.57 290.43 339.37 288.41 338.11 286.42 C 342.74 286.51 347.38 286.44 352.01 286.33 C 349.28 278.20 345.05 270.67 342.13 262.62 C 342.83 258.72 340.06 255.93 337.34 253.66 L 336.90 253.24 Z" />
</g>
<g id="#a68a50ff">
<path fill="#a68a50" opacity="1.00" d=" M 381.23 252.96 C 386.47 252.62 391.72 252.91 396.96 252.75 C 401.45 252.85 406.07 252.38 410.43 253.72 C 405.20 254.26 399.95 254.13 394.71 254.03 C 394.82 254.56 394.93 255.09 395.05 255.63 C 394.57 256.24 394.11 256.86 393.65 257.48 C 394.47 258.52 395.30 259.56 396.14 260.60 C 394.16 260.59 392.19 260.58 390.21 260.57 C 390.21 267.87 389.29 275.20 390.31 282.47 C 395.64 282.37 400.98 282.65 406.31 282.27 C 403.56 285.80 398.74 285.32 394.89 286.65 C 397.43 287.04 399.99 286.67 402.54 286.84 C 405.63 287.63 408.62 288.80 411.80 289.27 C 410.82 289.80 409.85 290.32 408.89 290.86 C 409.94 291.87 411.00 292.88 412.06 293.90 C 411.37 294.82 410.68 295.76 410.00 296.69 C 408.33 294.40 406.60 292.15 405.08 289.76 C 400.13 289.51 395.18 289.52 390.24 289.71 C 389.80 295.26 390.63 300.88 389.76 306.39 C 386.89 306.44 384.01 306.45 381.15 306.30 C 381.17 288.52 381.11 270.74 381.23 252.96 Z" />
</g>
<g id="#94753cff">
<path fill="#94753c" opacity="1.00" d=" M 84.38 253.88 C 91.33 254.28 98.29 253.92 105.23 254.46 C 104.52 254.67 103.11 255.10 102.40 255.31 C 103.27 256.12 104.14 256.95 105.01 257.77 C 104.66 258.20 103.94 259.05 103.59 259.48 C 100.25 259.75 96.92 260.10 93.61 260.57 C 93.55 273.34 93.65 286.11 93.56 298.89 C 97.06 301.70 101.84 301.19 105.95 302.40 C 104.56 302.90 103.16 303.40 101.77 303.91 C 102.89 304.73 104.00 305.56 105.12 306.39 C 98.29 306.34 91.45 306.55 84.61 306.32 C 84.41 288.85 84.88 271.36 84.38 253.88 Z" />
</g>
<g id="#bca263ff">
<path fill="#bca263" opacity="1.00" d=" M 161.90 253.67 C 167.67 253.71 173.63 253.31 179.14 255.37 C 177.60 256.06 176.04 256.69 174.47 257.30 C 175.88 258.32 177.27 259.38 178.63 260.48 C 173.00 260.54 167.37 260.43 161.74 260.50 C 160.09 258.34 159.84 255.67 161.90 253.67 Z" />
</g>
<g id="#d8c07cff">
<path fill="#d8c07c" opacity="1.00" d=" M 272.06 254.32 C 276.82 254.24 281.67 254.82 286.34 253.55 L 286.75 253.46 C 294.32 255.42 301.62 259.84 305.02 267.15 C 309.11 276.39 308.90 288.24 302.37 296.32 C 297.12 303.38 288.03 306.16 279.55 306.33 C 281.23 304.83 282.99 303.44 284.86 302.18 C 282.08 302.36 279.20 302.47 276.63 301.22 C 273.29 299.62 269.51 299.88 265.98 299.05 C 274.64 299.25 284.19 300.23 291.72 295.04 C 302.94 287.45 301.07 267.64 288.52 262.39 C 280.97 259.33 272.55 260.90 264.61 260.50 C 270.43 259.14 276.44 259.76 282.35 259.72 C 282.13 258.62 281.92 257.53 281.70 256.44 C 278.36 256.42 275.07 255.77 272.06 254.32 Z" />
</g>
<g id="#bd9d61ff">
<path fill="#bd9d61" opacity="1.00" d=" M 337.34 253.66 C 340.06 255.93 342.83 258.72 342.13 262.62 C 339.18 266.38 338.07 271.14 335.81 275.29 C 334.79 273.34 332.40 271.52 333.26 269.08 C 332.62 268.69 331.97 268.32 331.34 267.94 C 331.56 266.98 331.79 266.03 332.04 265.09 C 334.01 261.37 334.85 257.10 337.34 253.66 Z" />
</g>
<g id="#9d7e45ff">
<path fill="#9d7e45" opacity="1.00" d=" M 394.71 254.03 C 399.95 254.13 405.20 254.26 410.43 253.72 C 413.74 254.62 417.20 255.76 419.66 258.29 C 425.49 263.95 427.16 273.68 422.70 280.66 C 420.97 284.35 417.18 286.10 414.25 288.65 C 417.69 294.84 422.35 300.28 425.88 306.39 C 422.87 306.42 419.85 306.37 416.84 306.35 C 414.33 303.30 412.05 300.06 410.00 296.69 C 410.68 295.76 411.37 294.82 412.06 293.90 C 411.00 292.88 409.94 291.87 408.89 290.86 C 409.85 290.32 410.82 289.80 411.80 289.27 C 408.62 288.80 405.63 287.63 402.54 286.84 C 399.99 286.67 397.43 287.04 394.89 286.65 C 398.74 285.32 403.56 285.80 406.31 282.27 C 410.12 281.35 413.97 279.43 415.73 275.73 C 417.33 271.50 416.64 265.92 412.74 263.16 C 408.06 259.44 401.65 260.94 396.14 260.60 C 395.30 259.56 394.47 258.52 393.65 257.48 C 394.11 256.86 394.57 256.24 395.05 255.63 C 394.93 255.09 394.82 254.56 394.71 254.03 Z" />
</g>
<g id="#c9ad6cff">
<path fill="#c9ad6c" opacity="1.00" d=" M 312.96 306.41 C 319.20 292.60 325.60 278.82 332.04 265.09 C 331.79 266.03 331.56 266.98 331.34 267.94 C 331.97 268.32 332.62 268.69 333.26 269.08 C 332.40 271.52 334.79 273.34 335.81 275.29 C 334.20 278.91 332.76 282.62 331.33 286.31 C 333.58 286.36 335.85 286.39 338.11 286.42 C 339.37 288.41 340.57 290.43 341.71 292.50 C 346.18 293.04 350.88 291.94 355.17 293.56 C 346.04 293.66 336.91 293.66 327.79 293.65 C 325.23 297.56 324.07 302.16 322.17 306.38 C 319.10 306.42 316.02 306.45 312.96 306.41 Z" />
</g>
<g id="#bda666ff">
<path fill="#bda666" opacity="1.00" d=" M 160.07 275.75 C 168.76 275.41 177.48 275.56 186.17 275.61 C 186.20 278.00 186.21 280.39 186.26 282.78 C 183.23 283.62 180.13 282.78 177.06 282.82 C 171.14 282.75 165.21 282.79 159.29 282.76 C 159.33 281.65 159.37 280.55 159.40 279.45 C 161.67 279.20 163.94 278.96 166.21 278.77 C 164.01 278.12 161.84 277.26 160.07 275.75 Z" />
</g>
<g id="#9e814aff">
<path fill="#9e814a" opacity="1.00" d=" M 126.25 286.68 C 128.45 286.16 130.67 285.75 132.91 285.46 C 132.43 286.56 131.95 287.68 131.47 288.79 C 132.09 288.95 133.33 289.26 133.95 289.42 L 134.66 289.61 C 132.06 296.77 126.04 302.50 118.79 304.81 C 114.38 306.19 109.71 306.42 105.12 306.39 C 104.00 305.56 102.89 304.73 101.77 303.91 C 103.16 303.40 104.56 302.90 105.95 302.40 C 101.84 301.19 97.06 301.70 93.56 298.89 C 99.39 298.63 105.24 299.00 111.08 298.67 C 117.73 297.71 124.08 293.19 126.25 286.68 Z" />
</g>
<g id="#e3ce89ff">
<path fill="#e3ce89" opacity="1.00" d=" M 243.13 299.36 L 243.69 299.27 C 243.68 301.65 243.66 304.03 243.59 306.42 C 236.81 306.31 230.03 306.46 223.26 306.31 C 224.69 304.65 226.73 303.94 228.79 303.41 C 228.14 303.18 226.85 302.73 226.20 302.51 C 227.59 301.37 228.90 299.69 230.91 299.83 C 234.98 299.74 239.10 300.21 243.13 299.36 Z" />
</g>
<g id="#c1a768ff">
<path fill="#c1a768" opacity="1.00" d=" M 171.66 301.60 C 177.56 297.77 184.82 300.51 191.34 299.57 C 191.25 301.83 191.25 304.09 191.25 306.36 C 184.39 306.50 177.54 306.36 170.68 306.38 C 170.62 305.85 170.49 304.77 170.43 304.23 C 171.45 303.98 172.47 303.73 173.50 303.48 C 173.04 303.01 172.12 302.07 171.66 301.60 Z" />
</g>
<g id="#8d724bff">
<path fill="#8d724b" opacity="1.00" d=" M 85.33 324.33 C 86.31 324.43 87.29 324.54 88.27 324.65 C 88.30 326.62 88.33 328.59 88.37 330.56 C 90.84 330.55 93.31 330.60 95.77 330.74 C 95.81 328.71 95.82 326.69 95.80 324.68 C 96.76 324.53 97.71 324.39 98.66 324.26 C 98.85 329.42 98.86 334.59 98.85 339.76 C 98.21 339.74 96.93 339.71 96.28 339.70 C 96.11 337.51 95.89 335.33 95.70 333.15 C 93.18 333.15 90.67 333.16 88.16 333.20 C 88.16 335.31 88.23 337.43 88.32 339.55 C 87.31 339.62 86.30 339.70 85.29 339.78 C 85.26 334.63 85.27 329.48 85.33 324.33 Z" />
</g>
<g id="#9b7f5bfd">
<path fill="#9b7f5b" opacity="1.00" d=" M 131.29 324.38 C 134.88 324.57 138.99 323.61 142.15 325.76 C 145.10 328.29 144.06 332.76 141.29 334.96 C 142.02 336.66 143.05 338.22 143.97 339.83 C 141.65 340.10 140.04 338.87 139.13 336.83 C 138.31 334.68 135.93 335.29 134.14 335.19 C 134.02 336.69 133.92 338.19 133.85 339.69 C 133.21 339.68 131.95 339.66 131.32 339.65 C 131.48 334.56 131.39 329.47 131.29 324.38 M 134.29 327.16 C 134.01 329.05 134.13 330.97 134.16 332.88 C 136.81 332.86 140.66 333.56 141.48 330.12 C 141.46 326.66 136.72 326.32 134.29 327.16 Z" />
</g>
<g id="#9b8261f0">
<path fill="#9b8261" opacity="0.94" d=" M 152.28 325.10 C 153.49 324.55 154.75 324.12 156.00 323.67 C 158.49 324.28 160.92 325.23 162.82 327.02 C 160.25 329.13 157.64 325.90 154.92 326.94 C 151.55 327.32 149.32 331.83 151.34 334.64 C 152.88 337.97 157.64 338.82 160.18 336.11 C 160.80 336.39 162.03 336.95 162.65 337.22 C 160.60 339.85 156.68 340.73 153.58 339.66 C 146.98 338.48 146.13 327.53 152.28 325.10 Z" />
</g>
<g id="#5244318f">
<path fill="#524431" opacity="0.56" d=" M 176.99 324.01 C 178.12 324.10 179.25 324.20 180.39 324.30 C 180.18 328.25 181.18 332.53 179.38 336.22 C 179.90 332.44 179.95 328.61 179.92 324.79 C 179.27 324.76 177.98 324.69 177.33 324.66 C 177.23 328.20 177.81 331.83 176.94 335.32 C 176.84 331.55 176.70 327.77 176.99 324.01 Z" />
</g>
<g id="#4f453487">
<path fill="#4f4534" opacity="0.53" d=" M 183.21 324.25 C 187.64 324.32 192.34 323.58 196.62 324.39 C 198.15 327.77 193.46 327.52 191.45 326.89 C 192.99 326.74 194.54 326.63 196.09 326.52 L 196.11 324.83 C 192.12 324.69 188.09 324.32 184.12 324.89 L 183.60 326.56 C 185.34 326.65 187.08 326.73 188.83 326.81 C 189.11 331.06 189.05 335.33 188.76 339.58 C 188.33 335.52 188.32 331.44 188.30 327.36 C 186.75 327.04 184.73 327.75 183.46 326.70 C 183.40 326.09 183.27 324.86 183.21 324.25 Z" />
</g>
<g id="#c0a67bff">
<path fill="#c0a67b" opacity="1.00" d=" M 209.57 325.54 C 211.73 323.95 215.43 323.36 217.05 326.01 C 218.85 328.37 216.11 331.11 213.92 331.91 C 215.39 332.30 216.39 333.41 217.24 334.59 C 217.63 334.04 218.40 332.95 218.79 332.40 C 221.88 331.97 220.19 334.89 219.40 336.12 C 220.18 336.99 221.75 339.57 219.41 339.33 C 217.22 339.16 215.05 339.52 213.02 340.34 C 210.71 339.75 207.09 339.06 207.28 335.96 C 206.57 333.66 209.18 332.83 209.80 331.00 C 209.45 329.98 209.07 328.97 208.67 327.98 C 208.97 327.16 209.27 326.35 209.57 325.54 M 211.33 328.63 C 212.72 331.33 215.85 328.55 214.68 326.29 C 213.15 326.31 210.79 326.44 211.33 328.63 M 209.60 335.09 C 209.88 335.73 210.45 337.01 210.73 337.65 C 212.45 337.81 214.18 337.77 215.90 337.62 C 215.81 334.62 211.21 330.93 209.60 335.09 Z" />
</g>
<g id="#e4cba6fe">
<path fill="#e4cba6" opacity="1.00" d=" M 251.66 324.53 C 255.29 324.36 258.93 324.39 262.57 324.46 C 262.60 325.04 262.67 326.20 262.70 326.79 C 259.93 326.82 257.16 326.80 254.40 326.73 C 254.33 328.07 254.30 329.42 254.29 330.77 C 256.76 330.82 259.24 330.83 261.72 330.77 C 261.69 331.31 261.62 332.39 261.58 332.94 C 259.07 332.92 256.56 332.95 254.05 333.04 C 254.07 334.69 254.10 336.34 254.14 338.00 C 257.08 338.61 261.40 336.75 263.35 339.39 C 259.44 339.64 255.53 339.46 251.62 339.59 C 251.66 334.57 251.58 329.55 251.66 324.53 Z" />
</g>
<g id="#dac99bfd">
<path fill="#dac99b" opacity="1.00" d=" M 296.35 324.44 C 297.37 324.43 298.38 324.42 299.41 324.42 C 299.14 328.86 300.23 333.73 297.83 337.75 C 296.87 339.40 294.76 339.52 293.21 340.32 C 290.31 339.97 287.01 339.13 286.10 335.96 C 285.27 332.23 285.95 328.26 285.73 324.44 C 286.42 324.45 287.80 324.47 288.49 324.48 C 288.57 328.10 288.19 331.76 288.65 335.37 C 289.91 338.80 295.02 338.59 296.40 335.34 C 296.38 331.70 296.37 328.07 296.35 324.44 Z" />
</g>
<g id="#c9ab85f8">
<path fill="#c9ab85" opacity="0.97" d=" M 329.71 324.48 C 330.26 324.43 331.34 324.35 331.88 324.31 C 331.46 327.23 328.91 329.24 327.85 331.96 C 325.97 334.11 326.39 337.02 326.43 339.66 C 325.49 339.65 324.56 339.64 323.63 339.63 C 323.60 337.71 323.58 335.78 323.54 333.86 C 321.53 330.68 319.55 327.47 317.52 324.31 C 322.83 322.80 321.90 330.29 325.90 331.07 C 326.91 328.73 328.42 326.66 329.71 324.48 Z" />
</g>
<g id="#a48e64fa">
<path fill="#a48e64" opacity="0.98" d=" M 343.13 329.06 C 343.02 323.95 349.56 323.42 353.19 324.79 C 353.54 325.37 354.24 326.53 354.59 327.11 C 351.61 327.40 348.21 325.31 345.79 327.95 C 346.53 331.72 351.24 330.16 353.48 332.47 C 356.23 333.95 355.52 338.75 352.54 339.48 C 349.45 341.00 346.10 339.75 343.05 338.86 C 343.15 338.20 343.37 336.88 343.48 336.22 C 345.79 337.31 348.27 338.30 350.88 337.63 C 352.41 337.44 351.59 335.32 351.80 334.31 C 348.79 332.95 343.62 333.25 343.13 329.06 Z" />
<path fill="#a48e64" opacity="0.98" d=" M 166.34 324.44 C 167.08 324.44 168.56 324.46 169.30 324.47 C 169.46 328.30 168.70 332.32 169.95 336.01 C 170.81 337.90 172.94 337.78 174.69 337.81 C 175.45 336.98 176.23 336.19 176.94 335.32 C 177.81 331.83 177.23 328.20 177.33 324.66 C 177.98 324.69 179.27 324.76 179.92 324.79 C 179.95 328.61 179.90 332.44 179.38 336.22 C 177.42 341.75 168.57 341.21 166.54 336.02 C 166.01 332.18 166.33 328.29 166.34 324.44 Z" />
</g>
<g id="#a1855bfe">
<path fill="#a1855b" opacity="1.00" d=" M 363.65 325.49 C 364.17 323.87 365.94 324.58 367.18 324.59 C 369.53 329.62 371.56 334.79 374.00 339.79 C 371.44 340.36 370.48 338.53 369.60 336.54 C 367.05 335.93 364.38 336.37 361.79 336.39 C 361.28 337.47 360.76 338.55 360.25 339.63 C 359.29 339.63 358.34 339.63 357.39 339.63 C 359.56 334.95 361.62 330.22 363.65 325.49 M 365.33 327.98 C 364.34 329.96 363.60 332.06 363.15 334.23 C 364.97 334.22 366.80 334.20 368.64 334.20 C 367.43 332.21 367.52 329.19 365.33 327.98 Z" />
</g>
<g id="#987956fb">
<path fill="#987956" opacity="1.00" d=" M 398.21 324.19 C 404.05 323.02 409.64 329.57 407.08 335.10 C 405.18 341.83 393.85 341.72 391.83 335.17 C 389.69 330.53 393.09 324.59 398.21 324.19 M 396.36 327.59 C 392.47 329.96 393.69 336.67 398.11 337.66 C 401.50 338.64 405.06 335.48 404.77 332.05 C 405.18 327.90 399.58 325.07 396.36 327.59 Z" />
</g>
<g id="#947850ff">
<path fill="#947850" opacity="1.00" d=" M 422.62 324.58 C 423.69 324.48 424.76 324.38 425.83 324.29 C 425.77 329.46 425.79 334.62 425.77 339.79 C 424.64 339.52 423.09 339.87 422.45 338.64 C 420.29 335.65 417.86 332.87 415.47 330.07 C 415.21 333.21 415.21 336.35 415.26 339.50 C 414.26 339.55 413.26 339.60 412.27 339.66 C 411.62 334.57 412.11 329.46 412.15 324.36 C 412.84 324.46 414.21 324.66 414.90 324.76 C 417.66 327.84 419.69 331.78 423.17 334.08 C 423.35 330.90 423.12 327.72 422.62 324.58 Z" />
</g>
<g id="#91765aff">
<path fill="#91765a" opacity="1.00" d=" M 109.06 324.67 C 109.83 324.60 111.39 324.47 112.17 324.40 C 114.27 329.61 117.08 334.53 118.89 339.84 C 116.44 340.19 115.14 338.39 114.50 336.30 C 111.90 336.25 109.30 336.27 106.71 336.30 C 106.24 337.44 105.78 338.57 105.31 339.72 C 104.32 339.69 103.33 339.67 102.34 339.65 C 104.72 334.73 107.11 329.79 109.06 324.67 M 108.18 333.84 C 109.90 333.99 112.23 335.19 113.48 333.41 C 112.72 331.55 111.83 329.76 110.99 327.95 C 108.85 329.08 108.98 331.84 108.18 333.84 Z" />
</g>
<g id="#937554f1">
<path fill="#937554" opacity="0.95" d=" M 122.70 324.39 C 123.39 324.39 124.76 324.40 125.45 324.40 C 125.35 329.48 125.41 334.57 125.48 339.66 C 124.77 339.67 123.36 339.69 122.66 339.70 C 122.70 334.60 122.70 329.49 122.70 324.39 Z" />
</g>
<g id="#b49870f7">
<path fill="#b49870" opacity="0.97" d=" M 184.12 324.89 C 188.09 324.32 192.12 324.69 196.11 324.83 L 196.09 326.52 C 194.54 326.63 192.99 326.74 191.45 326.89 C 191.37 331.14 191.40 335.39 191.36 339.65 C 190.71 339.63 189.41 339.60 188.76 339.58 C 189.05 335.33 189.11 331.06 188.83 326.81 C 187.08 326.73 185.34 326.65 183.60 326.56 L 184.12 324.89 Z" />
</g>
<g id="#d7be93f5">
<path fill="#d7be93" opacity="0.96" d=" M 233.64 324.44 C 237.26 324.61 241.22 323.60 244.58 325.37 C 247.05 326.74 246.84 330.35 244.68 331.91 C 247.78 333.04 247.92 338.72 244.52 339.40 C 240.95 340.01 237.30 339.67 233.70 339.60 C 233.70 334.55 233.57 329.49 233.64 324.44 M 236.35 326.74 C 236.34 327.75 236.32 329.78 236.30 330.79 C 238.76 330.56 244.02 332.19 243.44 327.94 C 241.55 326.06 238.70 326.96 236.35 326.74 M 236.26 333.02 C 236.26 334.60 236.27 336.18 236.28 337.77 C 238.42 337.77 240.55 337.76 242.69 337.70 C 243.08 337.31 243.84 336.53 244.22 336.15 C 244.28 335.79 244.38 335.07 244.44 334.72 C 242.42 332.28 239.04 332.93 236.26 333.02 Z" />
</g>
<g id="#dbc69bfb">
<path fill="#dbc69b" opacity="1.00" d=" M 270.36 329.29 C 271.25 327.11 271.91 323.38 275.16 324.53 C 276.90 326.07 277.26 328.68 278.22 330.75 C 279.21 333.90 281.45 336.59 281.96 339.90 C 279.50 340.15 278.24 338.39 277.83 336.22 C 275.25 336.19 272.68 336.24 270.11 336.27 C 269.78 337.29 269.46 338.31 269.14 339.34 C 268.09 339.53 267.04 339.72 265.99 339.91 C 267.11 336.24 269.19 332.95 270.36 329.29 M 271.39 334.19 C 273.17 334.21 274.95 334.21 276.74 334.22 C 276.31 331.67 274.97 329.42 274.03 327.04 C 273.13 329.42 271.77 331.65 271.39 334.19 Z" />
</g>
<g id="#d3be90ff">
<path fill="#d3be90" opacity="1.00" d=" M 302.83 324.45 C 307.17 324.37 311.51 324.42 315.86 324.46 C 315.81 325.06 315.71 326.25 315.66 326.85 C 314.01 326.81 312.36 326.78 310.73 326.75 C 310.83 331.07 310.66 335.39 310.67 339.72 C 310.07 339.69 308.86 339.63 308.25 339.61 C 307.56 335.34 308.01 331.02 307.62 326.74 C 306.05 326.78 304.48 326.81 302.92 326.84 C 302.90 326.24 302.85 325.04 302.83 324.45 Z" />
</g>
<g id="#947a57f2">
<path fill="#947a57" opacity="0.95" d=" M 377.69 324.45 C 378.36 324.46 379.70 324.47 380.38 324.47 C 380.35 328.84 380.43 333.21 380.64 337.57 C 383.44 337.63 386.25 337.62 389.05 337.93 C 385.97 340.83 381.32 339.06 377.53 339.75 C 377.77 334.66 377.64 329.55 377.69 324.45 Z" />
</g>
<g id="#413a2e5b">
<path fill="#413a2e" opacity="0.36" d=" M 261.72 330.77 C 262.38 331.66 262.51 333.57 260.91 333.37 C 258.86 333.48 256.81 333.46 254.76 333.54 C 254.76 334.46 254.75 336.30 254.75 337.22 C 257.71 337.19 260.69 336.98 263.62 337.50 C 263.53 338.42 263.43 339.34 263.35 340.26 C 259.44 340.13 255.45 340.53 251.62 339.59 C 255.53 339.46 259.44 339.64 263.35 339.39 C 261.40 336.75 257.08 338.61 254.14 338.00 C 254.10 336.34 254.07 334.69 254.05 333.04 C 256.56 332.95 259.07 332.92 261.58 332.94 C 261.62 332.39 261.69 331.31 261.72 330.77 Z" />
</g>
<g id="#3830256c">
<path fill="#383025" opacity="0.42" d=" M 389.05 337.93 C 389.01 338.43 388.92 339.42 388.88 339.92 C 385.13 339.90 381.12 341.08 377.53 339.75 C 381.32 339.06 385.97 340.83 389.05 337.93 Z" />
</g>
</svg>
