<?xml version="1.0" encoding="UTF-8" ?>
<!DOCTYPE svg PUBLIC "-//W3C//DTD SVG 1.1//EN" "http://www.w3.org/Graphics/SVG/1.1/DTD/svg11.dtd">
<svg width="1024pt" height="1024pt" viewBox="0 0 1024 1024" version="1.1" xmlns="http://www.w3.org/2000/svg">
<g id="#0a0e11ff">
<path fill="#0a0e11" opacity="1.00" d=" M 0.00 0.00 L 1024.00 0.00 L 1024.00 1024.00 L 0.00 1024.00 L 0.00 0.00 M 567.48 195.06 C 566.32 219.43 560.24 244.09 546.57 264.57 C 538.76 277.12 528.43 287.82 517.46 297.63 C 516.94 298.00 515.91 298.74 515.40 299.11 C 503.36 308.91 490.17 317.18 476.71 324.86 C 466.71 330.18 456.74 335.60 446.66 340.78 C 429.88 349.07 413.24 357.71 397.21 367.40 C 385.96 373.94 375.39 381.59 365.25 389.73 C 356.25 397.23 347.86 405.55 340.67 414.81 C 334.39 423.29 328.59 432.23 324.38 441.92 C 313.53 466.27 310.23 494.15 316.12 520.21 C 316.50 522.16 316.69 524.14 316.84 526.13 C 315.26 522.91 313.40 519.84 311.83 516.62 C 309.91 512.75 307.91 508.92 306.23 504.94 C 298.98 487.18 293.10 468.37 293.48 448.99 C 293.50 438.73 295.89 428.63 298.73 418.87 C 302.47 409.69 306.72 400.62 312.60 392.59 C 318.81 384.77 325.58 377.32 333.43 371.11 L 333.48 370.89 C 338.27 367.19 343.38 363.93 348.36 360.51 C 359.13 354.24 370.25 348.56 381.66 343.53 C 398.43 336.36 415.18 329.16 431.99 322.09 C 443.85 316.77 455.41 310.73 466.36 303.70 L 466.39 303.54 C 478.45 295.90 489.53 286.71 498.85 275.88 C 513.12 259.61 522.87 239.21 525.61 217.68 C 522.24 226.91 518.72 236.18 513.44 244.51 C 508.33 252.58 502.44 260.15 495.95 267.15 C 494.43 268.18 493.27 269.68 491.92 270.91 C 481.49 281.24 469.35 289.62 456.92 297.32 C 445.12 303.71 432.96 309.47 420.65 314.83 C 408.49 319.81 396.42 325.02 384.28 330.04 C 374.74 334.13 365.33 338.55 356.17 343.44 C 346.12 348.44 336.60 354.60 327.66 361.41 C 313.81 372.16 302.04 385.76 294.28 401.53 C 294.23 401.89 294.11 402.62 294.06 402.98 C 293.91 402.79 293.62 402.40 293.47 402.21 C 295.25 385.11 300.56 368.65 306.61 352.65 C 311.94 339.34 318.98 326.76 326.39 314.56 C 336.62 299.84 347.66 285.64 360.30 272.90 L 360.31 272.69 C 369.12 264.26 378.19 256.09 387.80 248.58 C 396.68 241.75 406.20 235.80 415.64 229.82 C 432.26 220.69 449.58 212.80 467.76 207.28 C 481.57 202.84 495.92 200.47 510.25 198.48 C 495.53 198.69 480.94 200.87 466.59 204.05 C 444.52 209.28 422.88 217.09 403.25 228.54 C 393.97 233.13 385.39 239.13 377.07 245.28 L 376.93 245.27 C 369.42 250.95 361.99 256.78 355.33 263.45 L 355.13 263.45 C 344.98 273.06 335.53 283.48 327.13 294.64 L 326.97 294.67 C 310.80 315.91 297.95 339.88 290.21 365.47 L 289.98 365.51 C 282.09 390.48 278.39 416.85 279.93 443.02 C 281.17 463.77 286.04 484.21 293.32 503.66 C 296.97 512.28 300.99 520.78 305.52 529.00 C 310.91 539.49 317.82 549.17 325.13 558.38 C 335.42 571.96 347.41 584.23 360.30 595.35 C 365.69 600.12 371.37 604.64 377.32 608.68 C 390.32 618.22 404.18 626.64 418.94 633.16 C 426.63 637.07 434.93 639.54 442.79 643.06 C 448.12 645.43 452.12 649.80 456.05 653.97 C 462.47 661.00 467.85 669.14 470.79 678.25 C 475.01 690.43 474.06 703.84 470.39 716.03 C 472.11 714.50 473.66 712.79 475.18 711.06 C 484.02 703.07 491.43 693.42 496.85 682.80 C 504.83 666.79 506.31 647.88 501.53 630.69 C 496.56 610.73 484.12 593.89 472.03 577.68 C 465.16 568.16 458.27 558.63 452.17 548.59 C 451.77 547.47 451.14 546.46 450.61 545.42 C 451.59 543.46 451.48 541.28 451.33 539.18 C 452.70 539.89 454.20 541.08 455.56 539.55 C 460.86 546.78 466.88 553.50 473.50 559.54 C 485.36 569.75 498.56 578.91 513.43 584.07 L 513.15 584.42 C 513.40 584.40 513.91 584.37 514.16 584.36 C 527.36 590.06 541.76 592.51 556.03 593.43 C 582.42 594.88 608.75 588.49 632.72 577.72 C 649.26 569.78 664.99 559.87 678.53 547.44 C 683.97 543.05 688.71 537.73 693.50 532.61 C 694.35 532.76 696.06 533.06 696.91 533.20 C 697.76 532.00 698.57 530.70 699.89 529.96 C 699.54 533.46 695.20 536.86 698.02 540.17 C 694.15 546.45 689.69 552.33 685.23 558.20 C 676.65 568.57 667.45 578.45 657.28 587.29 C 656.67 588.05 655.26 588.60 655.34 589.70 L 654.93 589.36 C 645.84 597.05 636.22 604.09 626.15 610.44 C 616.23 616.24 606.01 621.56 595.42 626.03 L 595.42 626.21 C 570.54 635.90 544.17 642.36 517.37 642.63 C 517.49 646.38 517.38 650.13 517.34 653.89 C 547.16 653.38 576.93 646.79 604.13 634.51 C 614.39 630.24 624.16 624.86 633.62 619.03 C 643.96 612.52 653.87 605.31 663.14 597.33 C 674.44 587.39 685.20 576.68 694.25 564.62 C 703.08 553.50 711.02 541.53 717.60 528.90 C 722.94 518.66 727.67 508.07 731.41 497.15 C 739.53 474.35 743.60 450.21 744.26 426.05 C 744.49 403.48 741.43 380.90 735.79 359.06 C 732.93 348.41 729.37 337.79 724.64 327.89 C 720.43 316.25 714.22 305.48 707.72 295.00 C 701.94 285.59 695.14 276.85 688.16 268.32 L 688.01 268.33 C 678.24 256.85 667.11 246.64 655.41 237.18 L 654.96 237.67 C 654.48 236.35 653.07 235.84 652.10 234.97 C 643.22 228.29 633.83 222.31 624.07 217.01 C 606.11 207.64 587.21 199.80 567.48 195.06 M 585.63 759.04 C 587.15 761.63 589.92 763.11 592.33 764.76 C 593.49 765.99 594.94 767.03 596.45 767.82 C 599.19 770.04 602.08 772.08 604.90 774.21 C 606.09 775.07 607.63 774.60 608.99 774.65 C 606.86 770.03 603.12 766.21 600.09 762.12 C 599.53 760.89 598.63 759.87 597.89 758.77 L 597.50 758.66 C 596.26 755.63 593.48 752.68 589.90 753.27 C 586.91 753.14 584.98 756.29 585.63 759.04 M 205.04 782.69 C 204.31 786.17 208.97 784.66 210.85 786.11 C 215.05 788.08 214.98 793.06 215.17 797.03 C 215.25 810.00 215.17 822.97 215.18 835.95 C 215.13 843.87 215.42 851.82 214.59 859.72 C 214.35 861.20 213.33 862.41 212.78 863.79 C 210.46 865.38 207.70 865.94 204.98 866.46 C 204.74 868.29 206.71 868.34 208.04 868.29 C 229.11 868.34 250.18 868.28 271.25 868.39 C 272.46 860.21 274.30 852.09 274.95 843.84 C 274.41 843.80 273.34 843.74 272.80 843.71 C 270.18 848.11 268.55 853.12 265.23 857.12 C 261.30 862.43 254.41 864.62 248.02 864.53 C 241.53 864.51 235.04 864.63 228.56 864.53 C 227.82 863.11 227.54 861.53 227.64 859.96 C 227.63 837.98 227.51 816.01 227.68 794.04 C 227.49 791.04 228.97 788.42 231.15 786.52 C 233.36 785.45 235.78 785.13 238.20 785.06 C 238.27 784.23 238.33 783.41 238.40 782.60 C 236.22 782.65 234.04 782.69 231.86 782.71 C 222.92 782.55 213.98 782.73 205.04 782.69 M 288.35 782.60 C 288.43 783.20 288.60 784.38 288.68 784.97 C 292.62 785.19 296.75 786.64 298.33 790.60 C 298.93 802.71 298.53 814.85 298.62 826.97 C 298.74 832.33 298.19 837.75 299.03 843.07 C 299.83 850.81 303.34 858.55 309.58 863.40 C 315.98 868.17 324.12 869.82 331.97 869.83 C 339.91 870.05 348.38 868.82 354.84 863.83 C 361.13 859.13 364.34 851.27 364.99 843.69 L 365.05 842.29 C 366.01 826.21 364.58 810.04 365.79 793.97 C 365.81 791.01 367.72 788.80 369.58 786.76 C 371.75 785.80 374.06 785.37 376.39 785.00 C 376.43 784.41 376.52 783.22 376.56 782.63 C 370.84 782.78 365.11 782.50 359.40 782.81 C 355.82 782.42 352.19 782.69 348.60 782.72 C 348.59 785.87 351.90 785.13 353.97 785.88 C 357.76 786.63 360.44 790.26 360.30 794.10 C 361.13 806.90 360.31 819.74 360.68 832.56 C 360.50 835.84 360.58 839.15 360.18 842.43 C 359.19 847.63 357.96 853.17 354.16 857.12 C 348.87 862.89 340.49 864.58 332.97 864.02 C 326.17 863.54 318.88 860.82 315.26 854.69 C 311.44 848.86 311.11 841.71 310.89 834.97 C 310.76 820.53 310.80 806.10 311.32 791.67 C 311.41 791.54 311.59 791.29 311.68 791.17 L 311.63 790.44 C 313.07 786.16 317.74 785.24 321.63 784.62 C 321.58 784.12 321.48 783.14 321.43 782.64 C 310.41 782.56 299.38 782.71 288.35 782.60 M 392.33 782.65 C 392.28 783.13 392.18 784.10 392.13 784.58 C 396.13 785.09 401.10 786.28 402.35 790.75 C 403.31 795.43 402.99 800.29 402.81 805.04 C 402.52 821.38 402.35 837.73 401.56 854.06 C 401.55 858.17 400.35 862.77 396.30 864.66 C 394.47 865.34 392.55 865.74 390.61 865.86 C 390.64 866.48 390.71 867.72 390.75 868.34 C 399.89 868.24 409.03 868.33 418.17 868.34 C 419.00 864.76 414.05 865.85 412.00 864.80 C 408.64 863.17 406.54 859.65 406.76 855.90 C 406.20 835.50 407.86 815.11 407.59 794.72 C 407.78 794.69 408.16 794.64 408.35 794.61 C 412.05 804.95 417.05 814.78 420.89 825.07 C 427.15 839.54 432.97 854.21 439.45 868.58 C 440.13 868.67 441.50 868.85 442.18 868.95 C 446.52 858.88 450.54 848.67 454.50 838.45 C 460.10 823.93 466.29 809.62 471.45 794.95 C 471.66 794.37 472.07 793.23 472.28 792.65 C 472.34 793.11 472.46 794.03 472.53 794.49 C 472.78 815.01 473.84 835.54 473.89 856.07 C 473.86 858.48 473.96 861.22 472.15 863.09 C 470.23 865.44 467.05 865.66 464.27 865.90 C 464.19 866.51 464.04 867.72 463.97 868.32 C 475.23 868.46 486.49 868.12 497.74 868.54 C 497.73 867.98 497.70 866.86 497.69 866.30 C 493.98 865.81 489.31 865.16 487.80 861.12 C 485.96 855.97 486.64 850.35 486.25 844.98 C 485.68 831.33 485.32 817.66 485.07 804.00 C 484.82 799.49 484.69 794.96 485.26 790.47 C 486.07 789.34 486.80 788.17 487.58 787.03 C 489.64 785.99 491.83 785.23 494.15 785.09 C 495.89 785.37 495.85 783.62 495.56 782.48 C 487.60 782.70 479.62 782.64 471.66 782.55 C 464.08 801.03 456.86 819.67 449.49 838.24 L 448.16 837.92 C 446.11 839.80 444.32 842.27 441.18 841.92 C 436.43 831.40 432.29 820.62 427.77 810.01 C 424.22 801.79 420.73 793.55 417.52 785.20 C 417.18 784.53 416.50 783.18 416.16 782.51 C 408.22 782.82 400.27 782.49 392.33 782.65 M 513.95 782.63 C 514.04 783.22 514.21 784.40 514.30 784.99 C 517.51 785.49 521.47 785.88 523.16 789.14 C 525.12 793.47 524.09 798.42 524.41 803.03 C 524.21 822.01 524.84 841.02 523.98 859.98 C 523.09 862.37 521.49 864.39 519.21 865.60 C 517.69 865.47 516.16 865.67 514.66 865.70 C 514.45 866.58 514.35 867.49 514.34 868.41 C 525.28 868.34 536.22 868.35 547.17 868.40 C 548.20 865.56 544.52 865.38 542.75 865.63 C 539.65 864.61 537.63 862.01 536.77 858.97 C 536.52 838.98 536.68 818.99 536.67 799.00 C 536.83 795.20 536.30 790.91 538.81 787.71 C 540.86 785.26 544.35 785.46 547.19 784.74 C 547.22 784.22 547.28 783.18 547.30 782.67 C 536.19 782.66 525.07 782.68 513.95 782.63 M 564.39 782.60 C 564.48 783.19 564.67 784.38 564.76 784.98 C 567.41 785.42 570.25 785.53 572.45 787.32 C 572.97 788.38 573.51 789.47 574.18 790.49 C 574.28 791.25 574.49 792.79 574.60 793.55 C 574.74 813.37 574.77 833.18 574.61 853.00 C 574.59 857.01 574.60 861.65 571.36 864.56 C 569.22 865.45 566.93 865.82 564.63 865.86 C 564.63 866.51 564.63 867.81 564.63 868.46 C 586.85 868.18 609.07 868.41 631.29 868.36 C 632.85 860.69 633.67 852.90 634.97 845.20 C 634.25 845.18 632.82 845.14 632.11 845.12 C 630.28 850.64 627.53 855.94 623.35 860.06 C 619.37 862.61 614.87 864.75 610.01 864.55 C 602.65 864.48 595.27 864.83 587.92 864.40 C 587.19 861.67 587.06 858.84 587.12 856.03 C 587.24 845.94 587.01 835.85 587.18 825.76 C 594.50 826.02 601.97 824.93 609.17 826.65 C 611.69 828.18 613.81 830.40 614.49 833.37 C 614.70 834.75 615.04 836.10 615.44 837.45 C 616.37 837.41 617.29 837.38 618.23 837.35 C 617.51 828.45 617.96 819.52 618.22 810.61 C 617.27 810.50 616.32 810.40 615.39 810.30 C 614.72 813.06 614.21 815.89 612.82 818.41 L 611.98 818.91 L 611.70 819.57 C 609.14 821.29 606.06 822.00 603.00 821.87 C 597.70 821.74 592.38 822.12 587.09 821.81 C 587.16 810.07 587.14 798.33 587.17 786.59 C 596.98 786.97 607.02 785.42 616.65 787.70 C 621.49 789.74 625.07 793.91 626.75 798.85 C 627.51 800.98 627.27 805.46 630.77 803.88 C 630.20 796.80 630.14 789.69 629.65 782.61 C 607.90 782.77 586.14 782.66 564.39 782.60 M 652.93 782.71 C 652.63 786.15 656.73 784.87 658.80 786.03 C 662.65 787.74 663.27 792.28 663.22 796.02 C 663.43 815.35 663.29 834.68 663.23 854.02 C 663.24 857.91 662.86 862.81 658.93 864.81 C 656.98 866.10 652.67 864.68 653.15 868.20 C 664.23 868.58 675.33 868.26 686.43 868.37 C 686.54 867.50 686.49 866.65 686.27 865.81 C 683.52 865.78 680.40 865.71 678.42 863.51 C 676.05 861.36 675.91 857.95 675.78 854.99 C 675.75 845.87 675.67 836.74 675.68 827.62 C 679.22 828.98 683.48 827.31 686.97 829.18 C 690.36 830.98 692.49 834.32 694.56 837.44 C 697.67 842.34 700.56 847.38 703.72 852.26 C 707.33 857.67 710.28 863.57 714.80 868.31 C 721.58 868.27 728.36 868.40 735.14 868.36 C 736.31 866.12 733.38 865.80 732.02 865.54 C 727.25 864.58 723.67 860.83 721.09 856.92 C 715.17 849.00 710.49 840.28 705.11 832.01 C 703.72 829.65 701.64 827.86 699.30 826.51 C 706.13 825.18 713.20 822.26 717.23 816.28 C 722.73 808.27 722.03 795.96 714.52 789.42 C 709.34 784.88 702.34 783.23 695.65 782.68 C 681.41 782.57 667.16 782.65 652.93 782.71 M 748.16 784.73 C 752.53 784.91 757.88 786.86 758.20 791.97 C 758.66 812.96 758.42 833.98 758.40 854.98 C 758.56 858.02 757.84 861.03 756.20 863.61 C 753.85 865.24 751.06 865.85 748.28 866.15 C 748.31 866.74 748.37 867.91 748.40 868.50 C 770.68 868.16 792.97 868.46 815.26 868.32 C 816.40 860.59 818.02 852.93 818.79 845.15 C 818.15 845.15 816.87 845.15 816.23 845.15 C 814.19 849.63 812.27 854.28 809.00 858.05 C 804.88 862.93 798.15 864.80 791.96 864.55 C 785.39 864.41 778.82 864.74 772.26 864.47 C 772.05 864.20 771.63 863.66 771.42 863.40 C 770.84 850.84 771.15 838.24 771.13 825.68 C 778.97 826.23 787.32 824.40 794.77 827.47 C 795.22 828.17 795.80 828.79 796.50 829.31 C 797.99 831.75 798.62 834.56 799.28 837.32 C 799.78 837.40 800.78 837.56 801.28 837.64 L 801.77 837.03 C 801.71 828.14 801.73 819.25 801.71 810.36 C 800.72 810.44 799.75 810.53 798.78 810.65 C 798.58 813.80 797.58 816.85 795.76 819.45 C 795.47 819.65 794.87 820.04 794.57 820.24 C 792.78 820.96 790.97 821.78 789.00 821.75 C 783.04 821.84 777.08 821.90 771.13 821.85 C 770.59 816.24 771.35 810.63 771.12 805.02 C 771.34 798.81 770.64 792.61 771.08 786.42 L 772.37 786.35 C 780.23 786.54 788.11 786.21 795.98 786.61 C 799.11 787.26 802.40 788.00 804.91 790.15 C 807.91 792.34 809.24 795.92 810.66 799.21 C 811.42 801.42 810.83 805.55 814.49 804.19 C 814.27 797.00 813.70 789.83 813.58 782.63 C 798.64 782.73 783.70 782.59 768.75 782.65 C 762.01 782.67 755.27 782.73 748.53 782.58 C 748.44 783.12 748.26 784.19 748.16 784.73 Z" />
</g>
<g id="#e2d19aff">
<path fill="#e2d19a" opacity="1.00" d=" M 567.48 195.06 C 587.21 199.80 606.11 207.64 624.07 217.01 C 633.83 222.31 643.22 228.29 652.10 234.97 C 653.07 235.84 654.48 236.35 654.96 237.67 C 654.82 237.84 654.52 238.17 654.38 238.34 C 652.41 236.98 650.48 235.58 648.61 234.11 C 641.06 228.14 632.37 223.89 624.34 218.63 C 621.15 216.67 617.60 215.45 614.16 214.02 C 604.76 209.74 595.44 205.24 585.52 202.27 C 580.21 200.47 574.85 198.81 569.46 197.29 C 568.51 201.14 568.47 205.10 568.20 209.02 C 567.08 217.81 565.61 226.59 563.08 235.10 C 561.63 239.36 559.40 243.30 558.01 247.58 C 556.45 250.84 555.00 254.16 553.39 257.39 C 549.07 265.70 542.65 272.62 537.31 280.24 C 533.21 285.77 528.21 290.57 523.12 295.17 C 521.60 296.70 519.50 297.22 517.46 297.63 C 528.43 287.82 538.76 277.12 546.57 264.57 C 560.24 244.09 566.32 219.43 567.48 195.06 Z" />
<path fill="#e2d19a" opacity="1.00" d=" M 579.38 211.34 C 581.01 211.73 582.65 212.12 584.29 212.54 C 589.37 219.18 595.74 225.15 598.34 233.35 C 601.20 241.54 604.45 249.71 605.53 258.38 C 606.35 263.54 606.41 268.78 606.33 274.00 C 606.67 288.24 602.19 301.96 600.34 315.95 C 599.20 325.87 602.28 335.65 606.70 344.41 C 611.58 352.45 616.52 360.50 622.24 367.98 C 622.97 369.39 623.57 370.86 624.22 372.32 C 618.39 365.52 613.42 358.05 608.54 350.56 C 603.74 342.39 599.21 333.60 598.63 323.96 C 597.73 313.07 601.41 302.62 603.18 292.03 C 605.78 277.78 605.22 262.98 601.72 248.93 C 598.18 234.61 591.15 220.61 579.38 211.34 Z" />
<path fill="#e2d19a" opacity="1.00" d=" M 560.81 263.31 C 562.31 267.52 560.17 271.91 558.74 275.86 C 554.42 284.38 550.31 293.04 545.54 301.32 C 539.48 309.89 532.65 317.85 525.25 325.31 C 520.55 330.64 515.22 335.36 509.65 339.77 C 502.21 344.82 495.62 350.98 488.38 356.31 C 482.37 360.24 477.01 365.07 470.85 368.78 C 459.37 376.75 448.38 385.40 437.78 394.48 C 437.52 394.16 437.00 393.53 436.74 393.22 C 466.98 367.38 502.24 347.52 529.54 318.26 C 543.84 302.52 554.73 283.72 560.81 263.31 Z" />
<path fill="#e2d19a" opacity="1.00" d=" M 469.05 340.02 C 474.21 336.78 480.15 334.79 484.76 330.70 C 485.57 330.81 487.18 331.03 487.99 331.13 L 487.05 331.68 C 453.99 351.37 417.50 365.05 386.20 387.72 C 391.29 381.83 398.69 378.86 404.84 374.31 C 411.79 370.65 418.44 366.46 425.20 362.47 C 434.87 357.94 444.31 352.94 453.75 347.94 C 458.55 344.72 463.85 342.47 469.05 340.02 Z" />
<path fill="#e2d19a" opacity="1.00" d=" M 590.29 428.59 C 594.43 427.51 598.72 426.92 602.70 425.26 C 601.86 428.02 598.55 428.47 596.46 429.96 C 599.06 432.37 603.56 433.91 603.69 438.02 C 603.63 440.07 604.37 442.98 602.23 444.21 C 598.33 446.89 593.25 449.04 591.82 453.99 C 589.71 462.73 594.70 471.78 591.34 480.39 C 590.35 482.56 589.24 485.65 586.39 485.65 C 588.22 483.45 589.50 480.84 590.01 478.02 C 592.12 469.84 587.73 461.39 590.48 453.28 C 592.32 448.16 597.33 445.39 601.65 442.63 C 603.70 441.56 602.89 438.65 601.90 437.08 C 599.03 433.10 594.41 431.00 590.29 428.59 Z" />
<path fill="#e2d19a" opacity="1.00" d=" M 396.95 455.59 C 398.66 452.92 400.31 450.14 402.68 448.00 C 381.66 479.61 374.11 521.19 387.47 557.28 C 394.14 574.79 404.72 590.80 417.94 604.08 C 431.46 618.24 447.28 629.94 461.25 643.64 C 460.95 644.00 460.35 644.70 460.05 645.06 C 455.37 640.29 450.73 635.42 445.22 631.61 C 440.44 627.75 436.22 623.26 431.72 619.09 C 423.63 610.83 414.11 603.79 407.69 594.03 C 399.61 583.73 392.43 572.59 387.73 560.32 C 385.57 553.64 383.17 546.99 381.85 540.08 C 381.04 532.75 379.28 525.40 380.35 518.01 C 381.06 512.70 380.24 507.30 381.24 502.04 C 383.02 485.63 389.57 470.19 396.95 455.59 Z" />
<path fill="#e2d19a" opacity="1.00" d=" M 438.32 502.55 C 440.87 509.51 443.04 516.70 447.45 522.78 C 450.91 530.74 456.20 537.70 461.30 544.65 C 469.63 553.58 478.27 562.43 488.64 569.04 C 496.65 574.63 505.45 578.89 514.29 583.00 C 514.08 583.26 513.65 583.80 513.43 584.07 C 498.56 578.91 485.36 569.75 473.50 559.54 C 466.88 553.50 460.86 546.78 455.56 539.55 C 447.62 528.39 441.32 516.01 437.43 502.87 L 438.32 502.55 Z" />
<path fill="#e2d19a" opacity="1.00" d=" M 674.55 550.03 C 675.70 548.93 677.02 547.99 678.53 547.44 C 664.99 559.87 649.26 569.78 632.72 577.72 C 608.75 588.49 582.42 594.88 556.03 593.43 C 541.76 592.51 527.36 590.06 514.16 584.36 C 519.77 583.48 524.95 586.19 530.24 587.57 C 541.11 590.44 552.42 591.76 563.66 591.46 C 569.46 591.13 575.29 591.40 581.09 590.76 C 586.23 590.34 591.20 588.86 596.26 587.92 C 599.05 587.46 601.81 586.87 604.55 586.15 C 611.28 584.30 618.13 582.66 624.46 579.64 C 628.84 577.53 633.73 576.47 637.69 573.55 C 643.10 571.87 647.99 568.98 652.71 565.91 C 660.38 561.19 667.69 555.86 674.55 550.03 Z" />
<path fill="#e2d19a" opacity="1.00" d=" M 377.32 608.68 C 378.33 609.04 379.37 609.39 380.38 609.78 C 383.10 611.81 385.73 613.98 388.68 615.69 C 396.41 620.05 403.78 625.06 411.87 628.78 C 416.04 631.01 420.39 632.86 424.86 634.41 C 432.90 637.45 441.04 640.39 448.49 644.75 C 451.83 646.81 454.17 650.05 457.01 652.71 C 465.55 661.39 471.39 672.65 474.38 684.41 C 475.54 691.33 476.08 698.49 474.40 705.38 C 473.74 707.34 474.37 709.25 475.18 711.06 C 473.66 712.79 472.11 714.50 470.39 716.03 C 474.06 703.84 475.01 690.43 470.79 678.25 C 467.85 669.14 462.47 661.00 456.05 653.97 C 452.12 649.80 448.12 645.43 442.79 643.06 C 434.93 639.54 426.63 637.07 418.94 633.16 C 404.18 626.64 390.32 618.22 377.32 608.68 Z" />
<path fill="#e2d19a" opacity="1.00" d=" M 481.69 611.35 C 481.92 610.94 482.38 610.12 482.61 609.71 C 488.30 619.98 494.07 630.84 494.51 642.83 C 495.70 649.91 495.04 657.07 494.18 664.15 C 493.32 670.75 489.61 676.50 486.21 682.07 C 485.68 682.20 484.60 682.46 484.07 682.59 C 489.78 673.42 493.00 662.74 493.23 651.94 C 493.32 637.63 488.44 623.79 481.69 611.35 Z" />
<path fill="#e2d19a" opacity="1.00" d=" M 585.63 759.04 C 584.98 756.29 586.91 753.14 589.90 753.27 C 593.48 752.68 596.26 755.63 597.50 758.66 C 595.34 758.17 593.70 756.57 591.76 755.62 C 590.07 755.47 588.59 756.58 587.07 757.14 C 589.00 759.55 591.07 761.89 592.33 764.76 C 589.92 763.11 587.15 761.63 585.63 759.04 Z" />
<path fill="#e2d19a" opacity="1.00" d=" M 600.09 762.12 C 603.12 766.21 606.86 770.03 608.99 774.65 C 607.63 774.60 606.09 775.07 604.90 774.21 C 602.08 772.08 599.19 770.04 596.45 767.82 C 599.20 767.88 601.69 769.01 603.93 770.54 C 602.13 767.99 600.50 765.27 600.09 762.12 Z" />
<path fill="#e2d19a" opacity="1.00" d=" M 564.39 782.60 C 586.14 782.66 607.90 782.77 629.65 782.61 C 630.14 789.69 630.20 796.80 630.77 803.88 C 627.27 805.46 627.51 800.98 626.75 798.85 C 630.38 794.80 627.71 789.09 627.72 784.33 C 623.29 783.70 618.81 783.88 614.36 784.22 C 615.10 785.39 615.83 786.57 616.65 787.70 C 607.02 785.42 596.98 786.97 587.17 786.59 C 587.14 798.33 587.16 810.07 587.09 821.81 C 592.38 822.12 597.70 821.74 603.00 821.87 C 606.06 822.00 609.14 821.29 611.70 819.57 C 611.13 822.20 608.54 823.21 606.46 824.43 C 607.35 825.17 608.25 825.91 609.17 826.65 C 601.97 824.93 594.50 826.02 587.18 825.76 C 587.01 835.85 587.24 845.94 587.12 856.03 C 587.06 858.84 587.19 861.67 587.92 864.40 C 596.42 866.13 605.33 863.91 613.89 865.32 C 618.95 867.43 624.50 867.42 629.86 866.71 C 631.35 861.56 631.35 856.14 631.85 850.85 C 629.94 854.62 628.24 859.52 623.35 860.06 C 627.53 855.94 630.28 850.64 632.11 845.12 C 632.82 845.14 634.25 845.18 634.97 845.20 C 633.67 852.90 632.85 860.69 631.29 868.36 C 609.07 868.41 586.85 868.18 564.63 868.46 C 564.63 867.81 564.63 866.51 564.63 865.86 C 566.93 865.82 569.22 865.45 571.36 864.56 C 571.85 865.04 572.81 866.00 573.30 866.47 C 577.68 867.02 582.25 867.13 586.56 865.99 C 584.36 856.11 585.46 845.99 585.23 835.98 C 585.16 832.97 585.44 829.97 586.05 827.03 C 587.09 822.56 585.54 818.06 585.43 813.58 C 584.55 803.84 584.74 793.95 586.73 784.35 C 582.04 784.10 577.35 784.14 572.67 784.40 C 572.59 785.36 572.51 786.33 572.45 787.32 C 570.25 785.53 567.41 785.42 564.76 784.98 C 564.67 784.38 564.48 783.19 564.39 782.60 Z" />
</g>
<g id="#eed581ff">
<path fill="#eed581" opacity="1.00" d=" M 569.46 197.29 C 574.85 198.81 580.21 200.47 585.52 202.27 C 583.46 203.80 581.01 204.52 578.46 204.47 C 580.62 207.00 582.45 209.77 584.29 212.54 C 582.65 212.12 581.01 211.73 579.38 211.34 C 579.09 211.26 578.51 211.10 578.22 211.02 C 579.05 243.27 572.04 276.38 554.55 303.82 C 554.05 302.63 554.26 300.64 552.70 300.28 C 550.28 299.56 547.87 300.79 545.54 301.32 C 550.31 293.04 554.42 284.38 558.74 275.86 C 560.17 271.91 562.31 267.52 560.81 263.31 C 561.05 262.27 561.24 261.22 561.46 260.18 C 560.09 258.41 558.24 256.86 557.53 254.70 C 557.87 252.34 558.39 249.98 558.01 247.58 C 559.40 243.30 561.63 239.36 563.08 235.10 C 565.61 226.59 567.08 217.81 568.20 209.02 C 568.47 205.10 568.51 201.14 569.46 197.29 Z" />
</g>
<g id="#d9ccaeff">
<path fill="#d9ccae" opacity="1.00" d=" M 466.59 204.05 C 480.94 200.87 495.53 198.69 510.25 198.48 C 495.92 200.47 481.57 202.84 467.76 207.28 C 467.45 207.08 466.82 206.68 466.51 206.47 C 466.52 205.66 466.54 204.85 466.59 204.05 Z" />
</g>
<g id="#e5ca76ff">
<path fill="#e5ca76" opacity="1.00" d=" M 585.52 202.27 C 595.44 205.24 604.76 209.74 614.16 214.02 C 613.07 215.15 611.80 216.16 610.97 217.51 C 610.66 219.20 610.65 220.93 610.48 222.63 C 607.30 221.06 604.01 219.71 600.73 218.35 C 602.23 221.23 603.94 224.00 605.41 226.90 C 602.15 227.94 599.87 230.38 598.34 233.35 C 595.74 225.15 589.37 219.18 584.29 212.54 C 582.45 209.77 580.62 207.00 578.46 204.47 C 581.01 204.52 583.46 203.80 585.52 202.27 Z" />
</g>
<g id="#d2bb7fff">
<path fill="#d2bb7f" opacity="1.00" d=" M 403.25 228.54 C 422.88 217.09 444.52 209.28 466.59 204.05 C 466.54 204.85 466.52 205.66 466.51 206.47 C 466.82 206.68 467.45 207.08 467.76 207.28 C 449.58 212.80 432.26 220.69 415.64 229.82 C 417.30 225.43 423.00 225.08 425.16 221.08 C 418.92 221.84 413.46 225.18 407.96 227.96 C 406.53 228.85 404.82 228.54 403.25 228.54 Z" />
</g>
<g id="#0a0e0fff">
<path fill="#0a0e0f" opacity="1.00" d=" M 578.22 211.02 C 578.51 211.10 579.09 211.26 579.38 211.34 C 591.15 220.61 598.18 234.61 601.72 248.93 C 605.22 262.98 605.78 277.78 603.18 292.03 C 601.41 302.62 597.73 313.07 598.63 323.96 C 599.21 333.60 603.74 342.39 608.54 350.56 C 613.42 358.05 618.39 365.52 624.22 372.32 C 625.94 374.73 628.33 376.97 628.63 380.08 C 628.59 382.28 626.71 383.82 624.91 384.74 C 621.34 386.44 617.61 387.80 614.05 389.53 C 608.80 391.87 604.03 396.85 604.61 403.00 C 604.28 409.05 608.36 413.83 610.27 419.23 C 608.36 421.95 605.55 423.69 602.70 425.26 C 598.72 426.92 594.43 427.51 590.29 428.59 C 594.41 431.00 599.03 433.10 601.90 437.08 C 602.89 438.65 603.70 441.56 601.65 442.63 C 597.33 445.39 592.32 448.16 590.48 453.28 C 587.73 461.39 592.12 469.84 590.01 478.02 C 589.50 480.84 588.22 483.45 586.39 485.65 C 585.72 486.10 585.07 486.57 584.42 487.04 C 579.19 490.88 572.25 490.70 566.08 490.27 C 548.51 488.20 531.76 481.21 513.97 480.59 C 507.67 480.31 501.36 481.32 495.47 483.58 C 488.59 486.13 482.15 490.33 477.59 496.14 C 468.21 507.81 465.84 523.75 468.34 538.22 C 462.73 531.14 458.01 523.39 453.97 515.32 C 439.62 485.06 438.22 448.79 450.72 417.66 C 455.85 406.04 462.85 395.24 470.96 385.48 C 483.61 369.98 500.60 359.13 515.85 346.48 C 530.77 334.28 544.00 319.96 554.55 303.82 C 572.04 276.38 579.05 243.27 578.22 211.02 Z" />
<path fill="#0a0e0f" opacity="1.00" d=" M 600.73 218.35 C 604.01 219.71 607.30 221.06 610.48 222.63 C 622.94 228.74 634.84 235.98 645.91 244.33 C 656.56 252.43 666.64 261.35 675.64 271.25 C 684.76 281.26 692.92 292.13 699.98 303.68 C 706.74 314.34 711.99 325.85 716.81 337.49 C 723.68 355.26 729.13 373.85 729.98 392.99 C 731.70 419.23 727.43 445.83 717.92 470.33 C 712.58 483.77 706.11 496.83 697.83 508.71 C 690.07 519.76 681.33 530.20 671.23 539.18 C 661.29 548.23 650.07 555.74 638.42 562.39 C 634.59 564.51 630.58 566.27 626.64 568.16 C 605.86 577.75 582.99 582.79 560.10 582.37 C 539.95 581.94 519.94 576.48 502.41 566.55 C 497.90 563.86 493.23 561.20 489.65 557.30 C 483.34 550.36 479.94 541.17 478.70 531.97 C 477.91 522.02 479.96 511.29 486.30 503.34 C 491.93 496.71 500.20 491.97 509.05 491.91 C 527.56 491.20 544.83 499.30 563.04 501.19 C 572.35 502.46 582.60 502.12 590.55 496.48 C 598.25 491.45 602.10 482.05 601.67 473.04 C 601.89 467.71 600.13 462.40 600.94 457.10 C 603.00 453.38 607.73 452.54 610.44 449.41 C 614.18 445.80 614.86 439.91 612.71 435.30 C 612.19 434.12 611.59 432.97 611.04 431.83 C 611.34 431.64 611.96 431.27 612.27 431.09 C 616.60 428.85 620.87 425.23 621.23 420.01 C 622.50 413.25 614.81 408.79 616.17 402.00 C 617.86 399.14 621.47 398.40 624.28 397.02 C 630.92 394.21 639.20 390.16 639.66 381.91 C 640.86 372.33 632.38 366.14 627.61 359.01 C 622.03 351.18 616.05 343.39 612.59 334.33 C 611.63 331.74 610.82 329.09 610.38 326.36 C 618.46 325.68 625.88 321.46 631.02 315.27 C 624.65 317.08 618.00 318.30 611.38 317.07 C 611.09 316.85 610.50 316.42 610.21 316.20 C 610.70 307.95 613.21 300.02 614.41 291.87 C 617.77 269.96 614.89 246.99 605.41 226.90 C 603.94 224.00 602.23 221.23 600.73 218.35 Z" />
<path fill="#0a0e0f" opacity="1.00" d=" M 516.42 315.38 C 519.52 313.46 523.39 313.70 526.85 314.17 C 528.05 315.30 528.68 316.88 529.54 318.26 C 502.24 347.52 466.98 367.38 436.74 393.22 C 426.06 402.54 415.72 412.35 406.72 423.33 C 398.58 433.17 391.24 443.70 385.61 455.19 C 376.74 472.12 371.35 490.90 370.22 509.99 C 368.37 530.82 372.55 552.00 381.33 570.93 C 386.66 582.15 393.42 592.71 401.43 602.22 C 406.86 608.77 413.02 614.65 418.85 620.83 C 417.53 620.27 416.23 619.65 414.98 618.99 C 405.35 613.99 396.12 608.24 387.22 602.05 C 378.72 595.97 370.50 589.51 362.77 582.47 C 352.84 573.06 343.70 562.51 337.83 550.04 C 328.42 530.88 323.03 509.39 324.37 487.96 C 325.69 465.41 334.03 443.54 347.09 425.20 C 355.04 414.24 364.97 404.91 375.26 396.19 C 378.75 393.17 382.61 390.61 386.20 387.72 C 417.50 365.05 453.99 351.37 487.05 331.68 C 487.79 332.02 489.28 332.71 490.02 333.06 C 494.05 330.70 498.04 328.27 502.26 326.25 C 507.75 323.65 511.10 318.22 516.42 315.38 Z" />
<path fill="#0a0e0f" opacity="1.00" d=" M 418.52 426.90 C 424.04 420.57 429.96 414.57 436.06 408.79 C 437.57 410.01 439.07 411.23 440.57 412.47 C 422.09 450.92 417.43 497.61 434.50 537.40 C 441.69 554.99 452.70 570.74 464.42 585.59 C 470.37 594.04 476.56 602.36 481.69 611.35 C 488.44 623.79 493.32 637.63 493.23 651.94 C 493.00 662.74 489.78 673.42 484.07 682.59 C 483.94 682.62 483.69 682.69 483.57 682.73 C 482.65 678.17 481.14 673.76 479.35 669.49 C 475.14 659.78 468.93 650.91 461.25 643.64 C 447.28 629.94 431.46 618.24 417.94 604.08 C 404.72 590.80 394.14 574.79 387.47 557.28 C 374.11 521.19 381.66 479.61 402.68 448.00 C 407.41 440.57 412.77 433.57 418.52 426.90 Z" />
<path fill="#0a0e0f" opacity="1.00" d=" M 675.73 786.55 C 682.44 786.32 689.31 785.70 695.89 787.45 C 700.77 789.14 705.63 792.66 706.78 797.98 C 708.32 804.96 708.11 813.42 702.70 818.75 C 697.93 823.45 690.85 824.01 684.53 824.48 C 681.59 824.52 678.65 824.50 675.72 824.35 C 675.66 811.75 675.73 799.15 675.73 786.55 Z" />
</g>
<g id="#d6b96cff">
<path fill="#d6b96c" opacity="1.00" d=" M 614.16 214.02 C 617.60 215.45 621.15 216.67 624.34 218.63 C 632.37 223.89 641.06 228.14 648.61 234.11 C 647.74 237.52 646.86 240.94 645.91 244.33 C 634.84 235.98 622.94 228.74 610.48 222.63 C 610.65 220.93 610.66 219.20 610.97 217.51 C 611.80 216.16 613.07 215.15 614.16 214.02 Z" />
</g>
<g id="#e6d28dff">
<path fill="#e6d28d" opacity="1.00" d=" M 513.44 244.51 C 518.72 236.18 522.24 226.91 525.61 217.68 C 522.87 239.21 513.12 259.61 498.85 275.88 C 489.53 286.71 478.45 295.90 466.39 303.54 C 466.57 302.75 466.76 301.96 466.95 301.17 C 481.80 291.35 495.34 279.21 505.11 264.21 C 506.55 262.07 507.48 259.64 507.93 257.11 C 504.35 260.82 501.68 266.61 495.95 267.15 C 502.44 260.15 508.33 252.58 513.44 244.51 Z" />
</g>
<g id="#c9ab69ff">
<path fill="#c9ab69" opacity="1.00" d=" M 407.96 227.96 C 413.46 225.18 418.92 221.84 425.16 221.08 C 423.00 225.08 417.30 225.43 415.64 229.82 C 406.20 235.80 396.68 241.75 387.80 248.58 C 387.87 244.04 392.35 242.78 395.20 240.26 C 392.00 240.07 388.51 239.79 385.73 241.69 C 382.91 243.02 380.52 246.30 377.07 245.28 C 385.39 239.13 393.97 233.13 403.25 228.54 C 404.82 228.54 406.53 228.85 407.96 227.96 Z" />
</g>
<g id="#dfc272ff">
<path fill="#dfc272" opacity="1.00" d=" M 605.41 226.90 C 614.89 246.99 617.77 269.96 614.41 291.87 C 613.21 300.02 610.70 307.95 610.21 316.20 C 610.50 316.42 611.09 316.85 611.38 317.07 C 614.06 319.44 617.94 318.98 621.15 320.19 C 618.22 322.98 614.04 323.44 610.48 325.06 C 610.46 325.38 610.40 326.04 610.38 326.36 C 610.82 329.09 611.63 331.74 612.59 334.33 C 611.22 334.82 609.86 335.31 608.50 335.81 C 608.04 338.70 607.48 341.58 606.70 344.41 C 602.28 335.65 599.20 325.87 600.34 315.95 C 602.19 301.96 606.67 288.24 606.33 274.00 C 606.41 268.78 606.35 263.54 605.53 258.38 C 604.45 249.71 601.20 241.54 598.34 233.35 C 599.87 230.38 602.15 227.94 605.41 226.90 Z" />
<path fill="#dfc272" opacity="1.00" d=" M 602.70 425.26 C 605.55 423.69 608.36 421.95 610.27 419.23 C 610.51 422.68 608.16 425.73 608.55 429.21 C 609.79 429.83 611.02 430.45 612.27 431.09 C 611.96 431.27 611.34 431.64 611.04 431.83 C 611.59 432.97 612.19 434.12 612.71 435.30 C 611.84 439.27 613.20 443.93 610.25 447.22 C 607.57 451.23 601.91 452.06 599.65 456.35 C 598.77 464.45 600.76 472.79 598.63 480.81 C 597.74 483.74 596.62 486.61 595.25 489.35 C 593.81 492.10 590.94 493.61 588.49 495.31 C 586.93 494.68 584.76 494.73 583.92 493.04 C 583.89 491.02 584.18 489.03 584.42 487.04 C 585.07 486.57 585.72 486.10 586.39 485.65 C 589.24 485.65 590.35 482.56 591.34 480.39 C 594.70 471.78 589.71 462.73 591.82 453.99 C 593.25 449.04 598.33 446.89 602.23 444.21 C 604.37 442.98 603.63 440.07 603.69 438.02 C 603.56 433.91 599.06 432.37 596.46 429.96 C 598.55 428.47 601.86 428.02 602.70 425.26 Z" />
</g>
<g id="#c4a35dff">
<path fill="#c4a35d" opacity="1.00" d=" M 648.61 234.11 C 650.48 235.58 652.41 236.98 654.38 238.34 C 654.52 238.17 654.82 237.84 654.96 237.67 L 655.41 237.18 C 667.11 246.64 678.24 256.85 688.01 268.33 C 685.59 268.57 683.17 268.50 680.75 268.53 C 678.68 268.48 677.21 270.18 675.64 271.25 C 666.64 261.35 656.56 252.43 645.91 244.33 C 646.86 240.94 647.74 237.52 648.61 234.11 Z" />
</g>
<g id="#bf9f5cff">
<path fill="#bf9f5c" opacity="1.00" d=" M 385.73 241.69 C 388.51 239.79 392.00 240.07 395.20 240.26 C 392.35 242.78 387.87 244.04 387.80 248.58 C 378.19 256.09 369.12 264.26 360.31 272.69 C 360.17 270.32 361.59 268.31 362.44 266.21 C 363.60 263.66 363.82 260.83 364.11 258.08 C 361.66 260.45 359.22 264.08 355.33 263.45 C 361.99 256.78 369.42 250.95 376.93 245.27 L 377.07 245.28 C 380.52 246.30 382.91 243.02 385.73 241.69 Z" />
</g>
<g id="#f3dd89ff">
<path fill="#f3dd89" opacity="1.00" d=" M 553.39 257.39 C 555.00 254.16 556.45 250.84 558.01 247.58 C 558.39 249.98 557.87 252.34 557.53 254.70 C 558.24 256.86 560.09 258.41 561.46 260.18 C 556.83 270.10 550.24 278.94 543.33 287.38 C 536.95 295.25 529.25 301.91 521.50 308.38 C 518.93 307.81 516.37 307.06 514.27 305.40 C 515.98 303.61 517.63 301.76 519.22 299.85 C 517.94 299.60 516.66 299.35 515.40 299.11 C 515.91 298.74 516.94 298.00 517.46 297.63 C 519.50 297.22 521.60 296.70 523.12 295.17 C 528.21 290.57 533.21 285.77 537.31 280.24 C 542.65 272.62 549.07 265.70 553.39 257.39 Z" />
</g>
<g id="#e2c476ff">
<path fill="#e2c476" opacity="1.00" d=" M 495.95 267.15 C 501.68 266.61 504.35 260.82 507.93 257.11 C 507.48 259.64 506.55 262.07 505.11 264.21 C 495.34 279.21 481.80 291.35 466.95 301.17 C 465.85 299.54 464.82 297.87 463.90 296.15 C 461.64 296.90 459.31 297.42 456.92 297.32 C 469.35 289.62 481.49 281.24 491.92 270.91 C 493.27 269.68 494.43 268.18 495.95 267.15 Z" />
</g>
<g id="#b6924fff">
<path fill="#b6924f" opacity="1.00" d=" M 355.33 263.45 C 359.22 264.08 361.66 260.45 364.11 258.08 C 363.82 260.83 363.60 263.66 362.44 266.21 C 361.59 268.31 360.17 270.32 360.31 272.69 L 360.30 272.90 C 347.66 285.64 336.62 299.84 326.39 314.56 C 326.55 312.89 326.73 311.16 327.77 309.78 C 332.15 303.07 336.70 296.46 341.74 290.22 C 339.67 289.11 337.52 288.18 335.27 287.54 C 332.76 290.04 331.16 294.44 327.13 294.64 C 335.53 283.48 344.98 273.06 355.13 263.45 L 355.33 263.45 Z" />
</g>
<g id="#0e0e09ff">
<path fill="#0e0e09" opacity="1.00" d=" M 561.46 260.18 C 561.24 261.22 561.05 262.27 560.81 263.31 C 554.73 283.72 543.84 302.52 529.54 318.26 C 528.68 316.88 528.05 315.30 526.85 314.17 C 523.39 313.70 519.52 313.46 516.42 315.38 C 511.10 318.22 507.75 323.65 502.26 326.25 C 498.04 328.27 494.05 330.70 490.02 333.06 C 489.28 332.71 487.79 332.02 487.05 331.68 L 487.99 331.13 C 499.70 324.39 510.94 316.82 521.50 308.38 C 529.25 301.91 536.95 295.25 543.33 287.38 C 550.24 278.94 556.83 270.10 561.46 260.18 Z" />
</g>
<g id="#b69251ff">
<path fill="#b69251" opacity="1.00" d=" M 675.64 271.25 C 677.21 270.18 678.68 268.48 680.75 268.53 C 683.17 268.50 685.59 268.57 688.01 268.33 L 688.16 268.32 C 695.14 276.85 701.94 285.59 707.72 295.00 C 702.91 294.83 699.99 299.26 699.98 303.68 C 692.92 292.13 684.76 281.26 675.64 271.25 Z" />
</g>
<g id="#a67e3fff">
<path fill="#a67e3f" opacity="1.00" d=" M 335.27 287.54 C 337.52 288.18 339.67 289.11 341.74 290.22 C 336.70 296.46 332.15 303.07 327.77 309.78 C 326.73 311.16 326.55 312.89 326.39 314.56 C 318.98 326.76 311.94 339.34 306.61 352.65 C 300.56 368.65 295.25 385.11 293.47 402.21 C 290.65 399.40 292.30 395.07 292.89 391.67 C 296.23 381.89 297.20 371.51 300.65 361.75 C 301.75 355.80 305.76 350.91 306.81 344.96 C 304.60 343.30 299.95 342.73 299.21 346.18 C 297.65 352.86 294.54 358.98 291.74 365.19 C 291.36 365.26 290.60 365.40 290.21 365.47 C 297.95 339.88 310.80 315.91 326.97 294.67 L 327.13 294.64 C 331.16 294.44 332.76 290.04 335.27 287.54 Z" />
</g>
<g id="#aa8645ff">
<path fill="#aa8645" opacity="1.00" d=" M 699.98 303.68 C 699.99 299.26 702.91 294.83 707.72 295.00 C 714.22 305.48 720.43 316.25 724.64 327.89 C 720.75 325.98 719.43 321.38 717.16 318.00 C 715.84 317.44 714.45 317.08 713.10 316.66 C 713.39 321.47 714.56 326.16 716.38 330.61 C 717.42 332.78 717.03 335.18 716.81 337.49 C 711.99 325.85 706.74 314.34 699.98 303.68 Z" />
</g>
<g id="#d7b96dff">
<path fill="#d7b96d" opacity="1.00" d=" M 456.92 297.32 C 459.31 297.42 461.64 296.90 463.90 296.15 C 464.82 297.87 465.85 299.54 466.95 301.17 C 466.76 301.96 466.57 302.75 466.39 303.54 L 466.36 303.70 C 455.41 310.73 443.85 316.77 431.99 322.09 C 430.78 321.27 429.57 320.45 428.38 319.63 C 428.08 317.91 427.78 316.21 427.49 314.50 C 425.21 314.61 422.92 314.67 420.65 314.83 C 432.96 309.47 445.12 303.71 456.92 297.32 Z" />
</g>
<g id="#ebd481ff">
<path fill="#ebd481" opacity="1.00" d=" M 476.71 324.86 C 490.17 317.18 503.36 308.91 515.40 299.11 C 516.66 299.35 517.94 299.60 519.22 299.85 C 517.63 301.76 515.98 303.61 514.27 305.40 C 516.37 307.06 518.93 307.81 521.50 308.38 C 510.94 316.82 499.70 324.39 487.99 331.13 C 487.18 331.03 485.57 330.81 484.76 330.70 C 486.15 329.31 487.48 327.86 488.83 326.43 C 487.73 325.35 486.76 323.49 484.97 323.74 C 482.21 324.06 479.47 324.55 476.71 324.86 Z" />
</g>
<g id="#f4dc89ff">
<path fill="#f4dc89" opacity="1.00" d=" M 545.54 301.32 C 547.87 300.79 550.28 299.56 552.70 300.28 C 554.26 300.64 554.05 302.63 554.55 303.82 C 544.00 319.96 530.77 334.28 515.85 346.48 C 515.30 346.37 514.21 346.14 513.66 346.03 C 514.18 344.43 514.74 342.83 515.33 341.25 C 513.43 340.74 511.54 340.25 509.65 339.77 C 515.22 335.36 520.55 330.64 525.25 325.31 C 532.65 317.85 539.48 309.89 545.54 301.32 Z" />
</g>
<g id="#caad65ff">
<path fill="#caad65" opacity="1.00" d=" M 420.65 314.83 C 422.92 314.67 425.21 314.61 427.49 314.50 C 427.78 316.21 428.08 317.91 428.38 319.63 C 429.57 320.45 430.78 321.27 431.99 322.09 C 415.18 329.16 398.43 336.36 381.66 343.53 C 370.25 348.56 359.13 354.24 348.36 360.51 L 348.42 359.46 C 356.36 354.84 364.26 350.07 372.61 346.22 C 376.33 344.44 379.90 342.36 383.71 340.78 C 386.96 339.70 388.96 336.08 392.75 336.51 C 393.24 335.68 393.73 334.86 394.22 334.04 C 391.98 332.13 389.38 329.20 386.26 331.26 C 385.77 330.95 384.78 330.35 384.28 330.04 C 396.42 325.02 408.49 319.81 420.65 314.83 Z" />
</g>
<g id="#ceb387ff">
<path fill="#ceb387" opacity="1.00" d=" M 611.38 317.07 C 618.00 318.30 624.65 317.08 631.02 315.27 C 625.88 321.46 618.46 325.68 610.38 326.36 C 610.40 326.04 610.46 325.38 610.48 325.06 C 614.04 323.44 618.22 322.98 621.15 320.19 C 617.94 318.98 614.06 319.44 611.38 317.07 Z" />
</g>
<g id="#a1793aff">
<path fill="#a1793a" opacity="1.00" d=" M 716.38 330.61 C 714.56 326.16 713.39 321.47 713.10 316.66 C 714.45 317.08 715.84 317.44 717.16 318.00 C 719.43 321.38 720.75 325.98 724.64 327.89 C 729.37 337.79 732.93 348.41 735.79 359.06 C 741.43 380.90 744.49 403.48 744.26 426.05 C 743.60 450.21 739.53 474.35 731.41 497.15 C 730.19 494.95 729.15 492.66 728.21 490.35 C 727.46 490.66 726.72 490.98 725.99 491.30 C 725.05 490.13 723.94 489.04 723.40 487.63 C 723.02 483.38 724.82 479.08 723.69 474.88 C 722.58 473.48 720.80 473.48 719.27 474.08 C 718.81 472.83 718.36 471.57 717.92 470.33 C 727.43 445.83 731.70 419.23 729.98 392.99 C 729.13 373.85 723.68 355.26 716.81 337.49 C 717.03 335.18 717.42 332.78 716.38 330.61 Z" />
</g>
<g id="#e0c171ff">
<path fill="#e0c171" opacity="1.00" d=" M 476.71 324.86 C 479.47 324.55 482.21 324.06 484.97 323.74 C 486.76 323.49 487.73 325.35 488.83 326.43 C 487.48 327.86 486.15 329.31 484.76 330.70 C 480.15 334.79 474.21 336.78 469.05 340.02 C 463.85 342.47 458.55 344.72 453.75 347.94 C 452.74 346.56 451.57 345.33 450.31 344.18 C 450.69 343.26 451.08 342.34 451.48 341.42 C 449.87 341.19 448.26 340.95 446.66 340.78 C 456.74 335.60 466.71 330.18 476.71 324.86 Z" />
</g>
<g id="#bc9a55ff">
<path fill="#bc9a55" opacity="1.00" d=" M 356.17 343.44 C 365.33 338.55 374.74 334.13 384.28 330.04 C 384.78 330.35 385.77 330.95 386.26 331.26 C 389.38 329.20 391.98 332.13 394.22 334.04 C 393.73 334.86 393.24 335.68 392.75 336.51 C 388.96 336.08 386.96 339.70 383.71 340.78 C 379.90 342.36 376.33 344.44 372.61 346.22 C 369.78 345.11 367.12 343.51 364.19 342.72 C 361.51 342.97 358.87 343.54 356.17 343.44 Z" />
</g>
<g id="#d5b76bff">
<path fill="#d5b76b" opacity="1.00" d=" M 612.59 334.33 C 616.05 343.39 622.03 351.18 627.61 359.01 C 628.17 363.20 624.28 365.02 622.24 367.98 C 616.52 360.50 611.58 352.45 606.70 344.41 C 607.48 341.58 608.04 338.70 608.50 335.81 C 609.86 335.31 611.22 334.82 612.59 334.33 Z" />
</g>
<g id="#e7cc7cff">
<path fill="#e7cc7c" opacity="1.00" d=" M 488.38 356.31 C 495.62 350.98 502.21 344.82 509.65 339.77 C 511.54 340.25 513.43 340.74 515.33 341.25 C 514.74 342.83 514.18 344.43 513.66 346.03 C 514.21 346.14 515.30 346.37 515.85 346.48 C 500.60 359.13 483.61 369.98 470.96 385.48 C 470.56 381.62 474.05 379.64 475.87 376.82 C 477.03 373.18 472.20 371.65 470.85 368.78 C 477.01 365.07 482.37 360.24 488.38 356.31 Z" />
</g>
<g id="#d0b264ff">
<path fill="#d0b264" opacity="1.00" d=" M 397.21 367.40 C 413.24 357.71 429.88 349.07 446.66 340.78 C 448.26 340.95 449.87 341.19 451.48 341.42 C 451.08 342.34 450.69 343.26 450.31 344.18 C 451.57 345.33 452.74 346.56 453.75 347.94 C 444.31 352.94 434.87 357.94 425.20 362.47 C 418.44 366.46 411.79 370.65 404.84 374.31 C 403.42 372.31 402.38 370.08 402.58 367.58 C 400.79 367.48 399.00 367.38 397.21 367.40 Z" />
</g>
<g id="#ae8846ff">
<path fill="#ae8846" opacity="1.00" d=" M 364.19 342.72 C 367.12 343.51 369.78 345.11 372.61 346.22 C 364.26 350.07 356.36 354.84 348.42 359.46 L 348.36 360.51 C 343.38 363.93 338.27 367.19 333.48 370.89 C 333.63 368.08 336.49 366.80 338.21 364.98 C 334.91 363.24 331.49 361.47 327.66 361.41 C 336.60 354.60 346.12 348.44 356.17 343.44 C 358.87 343.54 361.51 342.97 364.19 342.72 Z" />
</g>
<g id="#9a7133ff">
<path fill="#9a7133" opacity="1.00" d=" M 299.21 346.18 C 299.95 342.73 304.60 343.30 306.81 344.96 C 305.76 350.91 301.75 355.80 300.65 361.75 C 297.20 371.51 296.23 381.89 292.89 391.67 C 292.30 395.07 290.65 399.40 293.47 402.21 C 293.62 402.40 293.91 402.79 294.06 402.98 C 294.50 404.97 294.87 406.97 295.23 408.98 C 295.70 407.76 296.16 406.53 296.64 405.31 C 298.34 405.57 300.04 405.86 301.74 406.19 C 300.06 410.21 296.50 414.32 298.73 418.87 C 295.89 428.63 293.50 438.73 293.48 448.99 C 293.10 468.37 298.98 487.18 306.23 504.94 C 307.91 508.92 309.91 512.75 311.83 516.62 C 310.65 520.59 308.47 524.17 307.48 528.21 C 306.82 528.46 306.17 528.73 305.52 529.00 C 300.99 520.78 296.97 512.28 293.32 503.66 C 286.04 484.21 281.17 463.77 279.93 443.02 C 278.39 416.85 282.09 390.48 289.98 365.51 L 290.21 365.47 C 290.60 365.40 291.36 365.26 291.74 365.19 C 294.54 358.98 297.65 352.86 299.21 346.18 Z" />
</g>
<g id="#c9a85dff">
<path fill="#c9a85d" opacity="1.00" d=" M 627.61 359.01 C 632.38 366.14 640.86 372.33 639.66 381.91 C 639.20 390.16 630.92 394.21 624.28 397.02 C 620.86 394.53 617.66 391.74 614.05 389.53 C 617.61 387.80 621.34 386.44 624.91 384.74 C 626.71 383.82 628.59 382.28 628.63 380.08 C 628.33 376.97 625.94 374.73 624.22 372.32 C 623.57 370.86 622.97 369.39 622.24 367.98 C 624.28 365.02 628.17 363.20 627.61 359.01 Z" />
</g>
<g id="#a07a3cff">
<path fill="#a07a3c" opacity="1.00" d=" M 327.66 361.41 C 331.49 361.47 334.91 363.24 338.21 364.98 C 336.49 366.80 333.63 368.08 333.48 370.89 L 333.43 371.11 C 325.58 377.32 318.81 384.77 312.60 392.59 C 306.72 400.62 302.47 409.69 298.73 418.87 C 296.50 414.32 300.06 410.21 301.74 406.19 C 300.04 405.86 298.34 405.57 296.64 405.31 C 296.16 406.53 295.70 407.76 295.23 408.98 C 294.87 406.97 294.50 404.97 294.06 402.98 C 294.11 402.62 294.23 401.89 294.28 401.53 C 302.04 385.76 313.81 372.16 327.66 361.41 Z" />
</g>
<g id="#be9b55ff">
<path fill="#be9b55" opacity="1.00" d=" M 365.25 389.73 C 375.39 381.59 385.96 373.94 397.21 367.40 C 399.00 367.38 400.79 367.48 402.58 367.58 C 402.38 370.08 403.42 372.31 404.84 374.31 C 398.69 378.86 391.29 381.83 386.20 387.72 C 382.61 390.61 378.75 393.17 375.26 396.19 C 374.98 394.79 374.70 393.41 374.43 392.02 C 373.81 392.43 373.20 392.84 372.59 393.25 C 371.00 390.69 367.90 390.40 365.25 389.73 Z" />
</g>
<g id="#dcbd6dff">
<path fill="#dcbd6d" opacity="1.00" d=" M 437.78 394.48 C 448.38 385.40 459.37 376.75 470.85 368.78 C 472.20 371.65 477.03 373.18 475.87 376.82 C 474.05 379.64 470.56 381.62 470.96 385.48 C 462.85 395.24 455.85 406.04 450.72 417.66 C 448.39 414.43 450.84 410.86 449.90 407.46 C 449.33 407.80 448.18 408.48 447.61 408.82 C 447.42 407.40 447.25 405.98 447.15 404.56 C 447.04 403.19 446.94 401.81 446.82 400.44 C 447.08 399.94 447.59 398.94 447.85 398.44 C 446.17 399.80 444.53 401.21 442.92 402.66 C 441.16 399.96 439.69 397.07 437.78 394.48 Z" />
</g>
<g id="#ae8a46ff">
<path fill="#ae8a46" opacity="1.00" d=" M 340.67 414.81 C 347.86 405.55 356.25 397.23 365.25 389.73 C 367.90 390.40 371.00 390.69 372.59 393.25 C 373.20 392.84 373.81 392.43 374.43 392.02 C 374.70 393.41 374.98 394.79 375.26 396.19 C 364.97 404.91 355.04 414.24 347.09 425.20 C 346.76 424.76 346.10 423.90 345.78 423.47 C 347.28 421.44 349.27 419.27 348.49 416.54 C 345.97 415.60 343.33 415.09 340.67 414.81 Z" />
</g>
<g id="#d3b567ff">
<path fill="#d3b567" opacity="1.00" d=" M 604.61 403.00 C 604.03 396.85 608.80 391.87 614.05 389.53 C 617.66 391.74 620.86 394.53 624.28 397.02 C 621.47 398.40 617.86 399.14 616.17 402.00 C 614.81 408.79 622.50 413.25 621.23 420.01 C 620.87 425.23 616.60 428.85 612.27 431.09 C 611.02 430.45 609.79 429.83 608.55 429.21 C 608.16 425.73 610.51 422.68 610.27 419.23 C 608.36 413.83 604.28 409.05 604.61 403.00 Z" />
</g>
<g id="#cfb065ff">
<path fill="#cfb065" opacity="1.00" d=" M 406.72 423.33 C 415.72 412.35 426.06 402.54 436.74 393.22 C 437.00 393.53 437.52 394.16 437.78 394.48 C 439.69 397.07 441.16 399.96 442.92 402.66 C 440.64 404.71 438.32 406.72 436.06 408.79 C 429.96 414.57 424.04 420.57 418.52 426.90 C 417.60 423.77 414.08 423.70 411.49 422.90 C 412.77 421.89 413.90 420.70 414.09 419.00 C 411.42 420.09 409.48 422.40 406.72 423.33 Z" />
</g>
<g id="#130900ff">
<path fill="#130900" opacity="1.00" d=" M 442.92 402.66 C 444.53 401.21 446.17 399.80 447.85 398.44 C 447.59 398.94 447.08 399.94 446.82 400.44 C 444.66 404.41 442.46 408.35 440.57 412.47 C 439.07 411.23 437.57 410.01 436.06 408.79 C 438.32 406.72 440.64 404.71 442.92 402.66 Z" />
</g>
<g id="#d1bd8aff">
<path fill="#d1bd8a" opacity="1.00" d=" M 440.57 412.47 C 442.46 408.35 444.66 404.41 446.82 400.44 C 446.94 401.81 447.04 403.19 447.15 404.56 C 445.22 406.70 443.69 409.16 442.73 411.88 C 440.34 418.40 436.76 424.48 435.31 431.33 C 434.35 436.23 431.44 440.44 430.35 445.30 C 426.37 462.21 424.86 479.71 425.84 497.04 C 427.40 505.68 428.77 514.40 430.97 522.90 C 435.47 536.85 441.62 550.46 450.25 562.36 C 455.14 571.48 462.20 579.16 468.25 587.51 C 473.61 594.53 478.55 601.84 482.61 609.71 C 482.38 610.12 481.92 610.94 481.69 611.35 C 476.56 602.36 470.37 594.04 464.42 585.59 C 452.70 570.74 441.69 554.99 434.50 537.40 C 417.43 497.61 422.09 450.92 440.57 412.47 Z" />
</g>
<g id="#d5b666ff">
<path fill="#d5b666" opacity="1.00" d=" M 442.73 411.88 C 443.69 409.16 445.22 406.70 447.15 404.56 C 447.25 405.98 447.42 407.40 447.61 408.82 C 448.18 408.48 449.33 407.80 449.90 407.46 C 450.84 410.86 448.39 414.43 450.72 417.66 C 438.22 448.79 439.62 485.06 453.97 515.32 C 453.32 517.18 452.90 519.16 451.85 520.85 C 450.53 521.78 448.90 522.14 447.45 522.78 C 443.04 516.70 440.87 509.51 438.32 502.55 L 437.43 502.87 C 437.02 501.57 436.57 500.27 436.14 499.00 C 436.98 515.39 443.02 531.03 450.61 545.42 C 451.14 546.46 451.77 547.47 452.17 548.59 C 451.72 552.09 452.16 555.59 452.63 559.07 C 453.01 560.67 451.09 561.35 450.25 562.36 C 441.62 550.46 435.47 536.85 430.97 522.90 C 428.77 514.40 427.40 505.68 425.84 497.04 C 424.86 479.71 426.37 462.21 430.35 445.30 C 431.44 440.44 434.35 436.23 435.31 431.33 C 436.76 424.48 440.34 418.40 442.73 411.88 Z" />
</g>
<g id="#a47e3dff">
<path fill="#a47e3d" opacity="1.00" d=" M 324.38 441.92 C 328.59 432.23 334.39 423.29 340.67 414.81 C 343.33 415.09 345.97 415.60 348.49 416.54 C 349.27 419.27 347.28 421.44 345.78 423.47 C 341.55 428.10 339.59 434.14 336.38 439.42 C 333.52 444.35 331.48 449.69 329.36 454.97 C 326.71 451.03 324.21 446.87 324.38 441.92 Z" />
</g>
<g id="#c7a75dff">
<path fill="#c7a75d" opacity="1.00" d=" M 406.72 423.33 C 409.48 422.40 411.42 420.09 414.09 419.00 C 413.90 420.70 412.77 421.89 411.49 422.90 C 414.08 423.70 417.60 423.77 418.52 426.90 C 412.77 433.57 407.41 440.57 402.68 448.00 C 400.31 450.14 398.66 452.92 396.95 455.59 C 396.80 452.39 396.39 448.51 392.99 447.12 C 390.86 450.08 389.45 454.08 385.61 455.19 C 391.24 443.70 398.58 433.17 406.72 423.33 Z" />
</g>
<g id="#9c8253ff">
<path fill="#9c8253" opacity="1.00" d=" M 336.38 439.42 C 339.59 434.14 341.55 428.10 345.78 423.47 C 346.10 423.90 346.76 424.76 347.09 425.20 C 334.03 443.54 325.69 465.41 324.37 487.96 C 323.03 509.39 328.42 530.88 337.83 550.04 C 336.86 549.69 335.89 549.35 334.93 549.01 C 330.02 537.55 326.41 525.61 323.88 513.42 C 322.71 507.68 322.71 501.81 322.72 495.99 C 321.90 482.05 324.60 468.04 329.36 454.97 C 331.48 449.69 333.52 444.35 336.38 439.42 Z" />
<path fill="#9c8253" opacity="1.00" d=" M 816.23 845.15 C 816.87 845.15 818.15 845.15 818.79 845.15 C 818.02 852.93 816.40 860.59 815.26 868.32 C 792.97 868.46 770.68 868.16 748.40 868.50 C 748.37 867.91 748.31 866.74 748.28 866.15 C 751.06 865.85 753.85 865.24 756.20 863.61 C 756.34 864.66 756.49 865.73 756.65 866.81 C 763.01 866.86 769.37 866.30 775.73 866.73 C 774.40 866.21 772.98 865.79 772.26 864.47 C 778.82 864.74 785.39 864.41 791.96 864.55 C 798.15 864.80 804.88 862.93 809.00 858.05 C 812.27 854.28 814.19 849.63 816.23 845.15 M 809.18 860.20 C 806.66 862.65 803.33 864.01 800.61 866.19 C 804.68 866.89 809.06 867.15 813.10 866.18 C 816.02 862.22 815.39 856.74 815.77 852.06 C 813.16 854.43 811.52 857.60 809.18 860.20 Z" />
</g>
<g id="#ddcb97ff">
<path fill="#ddcb97" opacity="1.00" d=" M 610.25 447.22 C 613.20 443.93 611.84 439.27 612.71 435.30 C 614.86 439.91 614.18 445.80 610.44 449.41 C 607.73 452.54 603.00 453.38 600.94 457.10 C 600.13 462.40 601.89 467.71 601.67 473.04 C 602.10 482.05 598.25 491.45 590.55 496.48 C 582.60 502.12 572.35 502.46 563.04 501.19 C 544.83 499.30 527.56 491.20 509.05 491.91 C 500.20 491.97 491.93 496.71 486.30 503.34 C 479.96 511.29 477.91 522.02 478.70 531.97 C 479.94 541.17 483.34 550.36 489.65 557.30 C 493.23 561.20 497.90 563.86 502.41 566.55 C 519.94 576.48 539.95 581.94 560.10 582.37 C 582.99 582.79 605.86 577.75 626.64 568.16 C 626.43 569.32 625.94 570.40 624.70 570.71 C 618.33 573.59 611.78 576.05 605.13 578.20 C 600.39 579.73 595.53 580.89 590.62 581.77 C 584.90 582.54 579.20 583.49 573.50 584.40 C 563.17 583.01 552.66 584.40 542.34 582.62 C 534.91 582.67 528.23 579.26 521.25 577.26 C 515.49 575.59 510.29 572.50 504.75 570.24 C 500.28 568.46 496.48 565.44 492.73 562.50 C 488.75 558.68 484.53 554.84 482.17 549.73 C 477.87 541.53 476.16 532.16 476.71 522.96 C 477.23 517.08 479.86 511.70 482.15 506.35 C 484.37 503.22 486.46 499.90 489.29 497.27 C 494.01 494.17 499.21 491.68 504.67 490.19 C 515.46 488.74 526.09 491.65 536.61 493.59 C 544.54 494.88 551.98 498.24 560.00 499.04 C 569.50 500.75 580.29 501.26 588.49 495.31 C 590.94 493.61 593.81 492.10 595.25 489.35 C 596.62 486.61 597.74 483.74 598.63 480.81 C 600.76 472.79 598.77 464.45 599.65 456.35 C 601.91 452.06 607.57 451.23 610.25 447.22 Z" />
</g>
<g id="#9d7838ff">
<path fill="#9d7838" opacity="1.00" d=" M 316.12 520.21 C 310.23 494.15 313.53 466.27 324.38 441.92 C 324.21 446.87 326.71 451.03 329.36 454.97 C 324.60 468.04 321.90 482.05 322.72 495.99 C 322.71 501.81 322.71 507.68 323.88 513.42 C 320.69 514.88 317.52 516.81 316.12 520.21 Z" />
</g>
<g id="#bf9d55ff">
<path fill="#bf9d55" opacity="1.00" d=" M 392.99 447.12 C 396.39 448.51 396.80 452.39 396.95 455.59 C 389.57 470.19 383.02 485.63 381.24 502.04 C 380.24 507.30 381.06 512.70 380.35 518.01 C 379.28 525.40 381.04 532.75 381.85 540.08 C 383.17 546.99 385.57 553.64 387.73 560.32 C 386.50 564.54 387.58 568.85 387.82 573.12 C 386.41 571.85 385.07 570.50 383.79 569.12 C 382.96 569.71 382.14 570.32 381.33 570.93 C 372.55 552.00 368.37 530.82 370.22 509.99 C 371.35 490.90 376.74 472.12 385.61 455.19 C 389.45 454.08 390.86 450.08 392.99 447.12 Z" />
</g>
<g id="#a98342ff">
<path fill="#a98342" opacity="1.00" d=" M 717.92 470.33 C 718.36 471.57 718.81 472.83 719.27 474.08 C 720.80 473.48 722.58 473.48 723.69 474.88 C 724.82 479.08 723.02 483.38 723.40 487.63 C 723.94 489.04 725.05 490.13 725.99 491.30 C 726.72 490.98 727.46 490.66 728.21 490.35 C 729.15 492.66 730.19 494.95 731.41 497.15 C 727.67 508.07 722.94 518.66 717.60 528.90 C 716.18 528.83 714.75 528.82 713.35 528.59 C 710.76 526.42 710.38 522.76 709.49 519.72 C 714.17 510.48 718.69 500.97 720.96 490.83 C 717.10 499.59 712.15 507.82 706.66 515.65 C 706.04 515.53 704.79 515.30 704.17 515.19 C 702.94 516.78 701.71 518.38 700.47 519.97 C 698.61 516.49 698.05 512.59 697.83 508.71 C 706.11 496.83 712.58 483.77 717.92 470.33 Z" />
</g>
<g id="#eed483ff">
<path fill="#eed483" opacity="1.00" d=" M 495.47 483.58 C 501.36 481.32 507.67 480.31 513.97 480.59 C 531.76 481.21 548.51 488.20 566.08 490.27 C 572.25 490.70 579.19 490.88 584.42 487.04 C 584.18 489.03 583.89 491.02 583.92 493.04 C 584.76 494.73 586.93 494.68 588.49 495.31 C 580.29 501.26 569.50 500.75 560.00 499.04 C 551.98 498.24 544.54 494.88 536.61 493.59 C 526.09 491.65 515.46 488.74 504.67 490.19 C 503.78 488.42 503.53 486.45 503.38 484.51 C 500.73 484.25 498.10 483.89 495.47 483.58 Z" />
</g>
<g id="#e5c878ff">
<path fill="#e5c878" opacity="1.00" d=" M 477.59 496.14 C 482.15 490.33 488.59 486.13 495.47 483.58 C 498.10 483.89 500.73 484.25 503.38 484.51 C 503.53 486.45 503.78 488.42 504.67 490.19 C 499.21 491.68 494.01 494.17 489.29 497.27 C 486.46 499.90 484.37 503.22 482.15 506.35 C 478.51 504.00 480.04 499.28 477.59 496.14 Z" />
</g>
<g id="#160f04ff">
<path fill="#160f04" opacity="1.00" d=" M 706.66 515.65 C 712.15 507.82 717.10 499.59 720.96 490.83 C 718.69 500.97 714.17 510.48 709.49 519.72 C 705.95 526.68 702.09 533.49 698.02 540.17 C 695.20 536.86 699.54 533.46 699.89 529.96 C 698.57 530.70 697.76 532.00 696.91 533.20 C 696.06 533.06 694.35 532.76 693.50 532.61 C 698.22 527.23 702.40 521.40 706.66 515.65 Z" />
</g>
<g id="#e1c271ff">
<path fill="#e1c271" opacity="1.00" d=" M 468.34 538.22 C 465.84 523.75 468.21 507.81 477.59 496.14 C 480.04 499.28 478.51 504.00 482.15 506.35 C 479.86 511.70 477.23 517.08 476.71 522.96 C 476.16 532.16 477.87 541.53 482.17 549.73 C 484.53 554.84 488.75 558.68 492.73 562.50 C 492.58 564.11 492.63 565.78 492.16 567.34 C 491.03 568.00 489.81 568.48 488.64 569.04 C 478.27 562.43 469.63 553.58 461.30 544.65 C 456.20 537.70 450.91 530.74 447.45 522.78 C 448.90 522.14 450.53 521.78 451.85 520.85 C 452.90 519.16 453.32 517.18 453.97 515.32 C 458.01 523.39 462.73 531.14 468.34 538.22 Z" />
</g>
<g id="#141104ff">
<path fill="#141104" opacity="1.00" d=" M 436.14 499.00 C 436.57 500.27 437.02 501.57 437.43 502.87 C 441.32 516.01 447.62 528.39 455.56 539.55 C 454.20 541.08 452.70 539.89 451.33 539.18 C 451.48 541.28 451.59 543.46 450.61 545.42 C 443.02 531.03 436.98 515.39 436.14 499.00 Z" />
</g>
<g id="#b6934eff">
<path fill="#b6934e" opacity="1.00" d=" M 671.23 539.18 C 681.33 530.20 690.07 519.76 697.83 508.71 C 698.05 512.59 698.61 516.49 700.47 519.97 C 701.71 518.38 702.94 516.78 704.17 515.19 C 704.79 515.30 706.04 515.53 706.66 515.65 C 702.40 521.40 698.22 527.23 693.50 532.61 C 688.71 537.73 683.97 543.05 678.53 547.44 C 677.02 547.99 675.70 548.93 674.55 550.03 C 672.96 547.83 672.22 545.18 670.73 542.94 C 670.88 541.68 671.04 540.43 671.23 539.18 Z" />
</g>
<g id="#a67e3dff">
<path fill="#a67e3d" opacity="1.00" d=" M 316.12 520.21 C 317.52 516.81 320.69 514.88 323.88 513.42 C 326.41 525.61 330.02 537.55 334.93 549.01 C 336.48 556.56 342.51 562.66 341.96 570.74 C 339.23 569.13 337.25 566.67 335.84 563.87 C 331.12 565.04 329.74 558.45 325.13 558.38 C 317.82 549.17 310.91 539.49 305.52 529.00 C 306.17 528.73 306.82 528.46 307.48 528.21 C 308.47 524.17 310.65 520.59 311.83 516.62 C 313.40 519.84 315.26 522.91 316.84 526.13 C 316.69 524.14 316.50 522.16 316.12 520.21 Z" />
</g>
<g id="#ae8b48ff">
<path fill="#ae8b48" opacity="1.00" d=" M 698.02 540.17 C 702.09 533.49 705.95 526.68 709.49 519.72 C 710.38 522.76 710.76 526.42 713.35 528.59 C 714.75 528.82 716.18 528.83 717.60 528.90 C 711.02 541.53 703.08 553.50 694.25 564.62 C 692.61 565.18 690.95 565.68 689.30 566.17 C 688.06 563.45 686.72 560.78 685.23 558.20 C 689.69 552.33 694.15 546.45 698.02 540.17 Z" />
</g>
<g id="#c4a65cff">
<path fill="#c4a65c" opacity="1.00" d=" M 638.42 562.39 C 650.07 555.74 661.29 548.23 671.23 539.18 C 671.04 540.43 670.88 541.68 670.73 542.94 C 672.22 545.18 672.96 547.83 674.55 550.03 C 667.69 555.86 660.38 561.19 652.71 565.91 C 647.99 568.98 643.10 571.87 637.69 573.55 C 637.01 571.38 636.13 569.30 635.56 567.11 C 637.02 565.79 639.75 564.88 638.42 562.39 Z" />
</g>
<g id="#ae8a49ff">
<path fill="#ae8a49" opacity="1.00" d=" M 334.93 549.01 C 335.89 549.35 336.86 549.69 337.83 550.04 C 343.70 562.51 352.84 573.06 362.77 582.47 C 361.80 583.57 359.94 584.51 360.43 586.26 C 360.96 588.05 362.40 589.42 362.95 591.20 C 363.06 592.71 363.25 594.21 363.74 595.66 C 362.59 595.56 361.44 595.45 360.30 595.35 C 347.41 584.23 335.42 571.96 325.13 558.38 C 329.74 558.45 331.12 565.04 335.84 563.87 C 337.25 566.67 339.23 569.13 341.96 570.74 C 342.51 562.66 336.48 556.56 334.93 549.01 Z" />
</g>
<g id="#dcbe6eff">
<path fill="#dcbe6e" opacity="1.00" d=" M 452.17 548.59 C 458.27 558.63 465.16 568.16 472.03 577.68 C 472.03 581.35 472.17 585.73 468.25 587.51 C 462.20 579.16 455.14 571.48 450.25 562.36 C 451.09 561.35 453.01 560.67 452.63 559.07 C 452.16 555.59 451.72 552.09 452.17 548.59 Z" />
</g>
<g id="#be9d57ff">
<path fill="#be9d57" opacity="1.00" d=" M 657.28 587.29 C 667.45 578.45 676.65 568.57 685.23 558.20 C 686.72 560.78 688.06 563.45 689.30 566.17 C 690.95 565.68 692.61 565.18 694.25 564.62 C 685.20 576.68 674.44 587.39 663.14 597.33 C 659.72 597.13 658.18 594.44 657.49 591.44 C 656.75 590.87 656.03 590.28 655.34 589.70 C 655.26 588.60 656.67 588.05 657.28 587.29 Z" />
</g>
<g id="#c5a45dff">
<path fill="#c5a45d" opacity="1.00" d=" M 387.73 560.32 C 392.43 572.59 399.61 583.73 407.69 594.03 C 404.01 594.38 403.59 598.22 403.65 601.17 C 402.90 601.51 402.16 601.86 401.43 602.22 C 393.42 592.71 386.66 582.15 381.33 570.93 C 382.14 570.32 382.96 569.71 383.79 569.12 C 385.07 570.50 386.41 571.85 387.82 573.12 C 387.58 568.85 386.50 564.54 387.73 560.32 Z" />
</g>
<g id="#e9ce7bff">
<path fill="#e9ce7b" opacity="1.00" d=" M 492.16 567.34 C 492.63 565.78 492.58 564.11 492.73 562.50 C 496.48 565.44 500.28 568.46 504.75 570.24 C 510.29 572.50 515.49 575.59 521.25 577.26 C 520.64 578.89 520.36 580.74 519.24 582.12 C 517.62 582.59 515.94 582.74 514.29 583.00 C 505.45 578.89 496.65 574.63 488.64 569.04 C 489.81 568.48 491.03 568.00 492.16 567.34 Z" />
</g>
<g id="#d8bc6cff">
<path fill="#d8bc6c" opacity="1.00" d=" M 626.64 568.16 C 630.58 566.27 634.59 564.51 638.42 562.39 C 639.75 564.88 637.02 565.79 635.56 567.11 C 636.13 569.30 637.01 571.38 637.69 573.55 C 633.73 576.47 628.84 577.53 624.46 579.64 C 618.13 582.66 611.28 584.30 604.55 586.15 C 605.22 583.55 606.06 580.85 605.13 578.20 C 611.78 576.05 618.33 573.59 624.70 570.71 C 625.94 570.40 626.43 569.32 626.64 568.16 Z" />
</g>
<g id="#f1da84ff">
<path fill="#f1da84" opacity="1.00" d=" M 521.25 577.26 C 528.23 579.26 534.91 582.67 542.34 582.62 C 552.66 584.40 563.17 583.01 573.50 584.40 C 570.95 585.53 568.17 585.42 565.46 585.64 C 562.84 586.55 564.15 589.46 563.66 591.46 C 552.42 591.76 541.11 590.44 530.24 587.57 C 524.95 586.19 519.77 583.48 514.16 584.36 C 513.91 584.37 513.40 584.40 513.15 584.42 L 513.43 584.07 C 513.65 583.80 514.08 583.26 514.29 583.00 C 515.94 582.74 517.62 582.59 519.24 582.12 C 520.36 580.74 520.64 578.89 521.25 577.26 Z" />
</g>
<g id="#e8ce7cff">
<path fill="#e8ce7c" opacity="1.00" d=" M 472.03 577.68 C 484.12 593.89 496.56 610.73 501.53 630.69 C 506.31 647.88 504.83 666.79 496.85 682.80 C 491.43 693.42 484.02 703.07 475.18 711.06 C 474.37 709.25 473.74 707.34 474.40 705.38 C 476.08 698.49 475.54 691.33 474.38 684.41 C 475.56 681.16 476.61 677.87 477.36 674.49 C 477.69 674.73 478.37 675.20 478.71 675.44 C 478.93 673.45 479.17 671.47 479.35 669.49 C 481.14 673.76 482.65 678.17 483.57 682.73 C 483.69 682.69 483.94 682.62 484.07 682.59 C 484.60 682.46 485.68 682.20 486.21 682.07 C 489.61 676.50 493.32 670.75 494.18 664.15 C 495.04 657.07 495.70 649.91 494.51 642.83 C 494.07 630.84 488.30 619.98 482.61 609.71 C 478.55 601.84 473.61 594.53 468.25 587.51 C 472.17 585.73 472.03 581.35 472.03 577.68 Z" />
</g>
<g id="#e4c673ff">
<path fill="#e4c673" opacity="1.00" d=" M 590.62 581.77 C 595.53 580.89 600.39 579.73 605.13 578.20 C 606.06 580.85 605.22 583.55 604.55 586.15 C 601.81 586.87 599.05 587.46 596.26 587.92 C 594.36 587.38 592.52 586.68 590.69 586.00 C 590.67 584.58 590.62 583.17 590.62 581.77 Z" />
</g>
<g id="#e8d07cff">
<path fill="#e8d07c" opacity="1.00" d=" M 573.50 584.40 C 579.20 583.49 584.90 582.54 590.62 581.77 C 590.62 583.17 590.67 584.58 590.69 586.00 C 592.52 586.68 594.36 587.38 596.26 587.92 C 591.20 588.86 586.23 590.34 581.09 590.76 C 575.29 591.40 569.46 591.13 563.66 591.46 C 564.15 589.46 562.84 586.55 565.46 585.64 C 568.17 585.42 570.95 585.53 573.50 584.40 Z" />
</g>
<g id="#ba9a56ff">
<path fill="#ba9a56" opacity="1.00" d=" M 360.43 586.26 C 359.94 584.51 361.80 583.57 362.77 582.47 C 370.50 589.51 378.72 595.97 387.22 602.05 C 384.33 604.03 381.78 606.50 380.38 609.78 C 379.37 609.39 378.33 609.04 377.32 608.68 C 371.37 604.64 365.69 600.12 360.30 595.35 C 361.44 595.45 362.59 595.56 363.74 595.66 C 363.25 594.21 363.06 592.71 362.95 591.20 C 362.40 589.42 360.96 588.05 360.43 586.26 Z" />
</g>
<g id="#cfb266ff">
<path fill="#cfb266" opacity="1.00" d=" M 626.15 610.44 C 636.22 604.09 645.84 597.05 654.93 589.36 L 655.34 589.70 C 656.03 590.28 656.75 590.87 657.49 591.44 C 658.18 594.44 659.72 597.13 663.14 597.33 C 653.87 605.31 643.96 612.52 633.62 619.03 C 629.15 618.32 628.08 613.77 626.15 610.44 Z" />
</g>
<g id="#cead62ff">
<path fill="#cead62" opacity="1.00" d=" M 403.65 601.17 C 403.59 598.22 404.01 594.38 407.69 594.03 C 414.11 603.79 423.63 610.83 431.72 619.09 C 430.89 619.47 429.24 620.23 428.41 620.61 C 427.99 625.38 426.47 629.93 424.86 634.41 C 420.39 632.86 416.04 631.01 411.87 628.78 C 412.65 625.82 415.98 625.18 418.00 623.29 C 416.48 622.24 414.96 621.22 413.43 620.20 C 413.82 619.90 414.59 619.29 414.98 618.99 C 416.23 619.65 417.53 620.27 418.85 620.83 C 413.02 614.65 406.86 608.77 401.43 602.22 C 402.16 601.86 402.90 601.51 403.65 601.17 Z" />
</g>
<g id="#c8a95dff">
<path fill="#c8a95d" opacity="1.00" d=" M 387.22 602.05 C 396.12 608.24 405.35 613.99 414.98 618.99 C 414.59 619.29 413.82 619.90 413.43 620.20 C 414.96 621.22 416.48 622.24 418.00 623.29 C 415.98 625.18 412.65 625.82 411.87 628.78 C 403.78 625.06 396.41 620.05 388.68 615.69 C 385.73 613.98 383.10 611.81 380.38 609.78 C 381.78 606.50 384.33 604.03 387.22 602.05 Z" />
</g>
<g id="#dec273ff">
<path fill="#dec273" opacity="1.00" d=" M 595.42 626.03 C 606.01 621.56 616.23 616.24 626.15 610.44 C 628.08 613.77 629.15 618.32 633.62 619.03 C 624.16 624.86 614.39 630.24 604.13 634.51 C 601.59 633.96 599.07 633.34 596.54 632.83 C 595.82 633.65 595.11 634.49 594.40 635.33 C 594.71 632.28 595.19 629.26 595.42 626.21 L 595.42 626.03 Z" />
</g>
<g id="#d5b767ff">
<path fill="#d5b767" opacity="1.00" d=" M 428.41 620.61 C 429.24 620.23 430.89 619.47 431.72 619.09 C 436.22 623.26 440.44 627.75 445.22 631.61 C 450.73 635.42 455.37 640.29 460.05 645.06 C 460.05 646.80 460.46 648.58 460.16 650.32 C 459.18 651.21 458.06 651.92 457.01 652.71 C 454.17 650.05 451.83 646.81 448.49 644.75 C 441.04 640.39 432.90 637.45 424.86 634.41 C 426.47 629.93 427.99 625.38 428.41 620.61 Z" />
</g>
<g id="#edd684ff">
<path fill="#edd684" opacity="1.00" d=" M 517.37 642.63 C 544.17 642.36 570.54 635.90 595.42 626.21 C 595.19 629.26 594.71 632.28 594.40 635.33 C 595.11 634.49 595.82 633.65 596.54 632.83 C 599.07 633.34 601.59 633.96 604.13 634.51 C 576.93 646.79 547.16 653.38 517.34 653.89 C 517.38 650.13 517.49 646.38 517.37 642.63 Z" />
</g>
<g id="#e0c474ff">
<path fill="#e0c474" opacity="1.00" d=" M 460.05 645.06 C 460.35 644.70 460.95 644.00 461.25 643.64 C 468.93 650.91 475.14 659.78 479.35 669.49 C 479.17 671.47 478.93 673.45 478.71 675.44 C 478.37 675.20 477.69 674.73 477.36 674.49 C 476.61 677.87 475.56 681.16 474.38 684.41 C 471.39 672.65 465.55 661.39 457.01 652.71 C 458.06 651.92 459.18 651.21 460.16 650.32 C 460.46 648.58 460.05 646.80 460.05 645.06 Z" />
</g>
<g id="#e9cf83ff">
<path fill="#e9cf83" opacity="1.00" d=" M 587.07 757.14 C 588.59 756.58 590.07 755.47 591.76 755.62 C 593.70 756.57 595.34 758.17 597.50 758.66 L 597.89 758.77 C 598.63 759.87 599.53 760.89 600.09 762.12 C 600.50 765.27 602.13 767.99 603.93 770.54 C 601.69 769.01 599.20 767.88 596.45 767.82 C 594.94 767.03 593.49 765.99 592.33 764.76 C 591.07 761.89 589.00 759.55 587.07 757.14 Z" />
</g>
<g id="#9f7636ff">
<path fill="#9f7636" opacity="1.00" d=" M 205.04 782.69 C 213.98 782.73 222.92 782.55 231.86 782.71 C 231.63 783.97 231.39 785.24 231.15 786.52 C 228.97 788.42 227.49 791.04 227.68 794.04 C 227.51 816.01 227.63 837.98 227.64 859.96 C 227.54 861.53 227.82 863.11 228.56 864.53 C 228.80 865.07 229.29 866.16 229.53 866.71 C 223.84 866.66 218.14 866.87 212.45 866.72 C 212.54 865.73 212.65 864.75 212.78 863.79 C 213.33 862.41 214.35 861.20 214.59 859.72 C 215.42 851.82 215.13 843.87 215.18 835.95 C 215.17 822.97 215.25 810.00 215.17 797.03 C 214.98 793.06 215.05 788.08 210.85 786.11 C 208.97 784.66 204.31 786.17 205.04 782.69 Z" />
</g>
<g id="#928266ff">
<path fill="#928266" opacity="1.00" d=" M 231.86 782.71 C 234.04 782.69 236.22 782.65 238.40 782.60 C 238.33 783.41 238.27 784.23 238.20 785.06 C 235.78 785.13 233.36 785.45 231.15 786.52 C 231.39 785.24 231.63 783.97 231.86 782.71 Z" />
</g>
<g id="#a89165ff">
<path fill="#a89165" opacity="1.00" d=" M 288.35 782.60 C 299.38 782.71 310.41 782.56 321.43 782.64 C 321.48 783.14 321.58 784.12 321.63 784.62 C 317.74 785.24 313.07 786.16 311.63 790.44 C 311.31 788.47 312.04 786.59 312.61 784.75 C 307.65 783.74 302.56 784.25 297.56 784.49 C 297.98 786.50 298.29 788.54 298.33 790.60 C 296.75 786.64 292.62 785.19 288.68 784.97 C 288.60 784.38 288.43 783.20 288.35 782.60 Z" />
</g>
<g id="#b79d5eff">
<path fill="#b79d5e" opacity="1.00" d=" M 348.60 782.72 C 352.19 782.69 355.82 782.42 359.40 782.81 C 362.71 784.79 366.60 784.29 370.28 784.17 C 370.06 785.03 369.83 785.88 369.58 786.76 C 367.72 788.80 365.81 791.01 365.79 793.97 C 364.58 810.04 366.01 826.21 365.05 842.29 C 364.83 825.72 365.11 809.13 364.65 792.58 C 363.59 794.92 363.62 797.51 363.69 800.03 C 363.97 810.36 363.59 820.69 363.68 831.03 C 363.82 835.25 362.84 839.78 364.99 843.69 C 364.34 851.27 361.13 859.13 354.84 863.83 C 348.38 868.82 339.91 870.05 331.97 869.83 C 324.12 869.82 315.98 868.17 309.58 863.40 C 303.34 858.55 299.83 850.81 299.03 843.07 C 299.14 825.67 298.79 808.25 299.39 790.86 C 300.55 794.09 299.79 797.63 300.12 801.00 C 300.89 813.99 300.30 827.00 300.59 840.00 C 300.67 847.61 303.82 855.39 309.47 860.54 C 313.48 862.97 318.02 867.14 322.98 864.82 C 319.84 861.68 315.06 860.00 313.47 855.53 C 307.81 844.21 308.76 831.27 309.09 819.03 C 309.33 811.36 308.97 803.68 309.36 796.02 C 309.26 794.30 310.32 792.93 311.32 791.67 C 310.80 806.10 310.76 820.53 310.89 834.97 C 311.11 841.71 311.44 848.86 315.26 854.69 C 318.88 860.82 326.17 863.54 332.97 864.02 C 340.49 864.58 348.87 862.89 354.16 857.12 C 357.96 853.17 359.19 847.63 360.18 842.43 C 360.60 842.43 361.45 842.42 361.87 842.41 C 363.10 833.65 362.21 824.77 362.30 815.95 C 361.80 808.85 362.96 801.69 361.76 794.64 C 360.47 807.21 361.95 819.96 360.68 832.56 C 360.31 819.74 361.13 806.90 360.30 794.10 C 360.44 790.26 357.76 786.63 353.97 785.88 C 351.90 785.13 348.59 785.87 348.60 782.72 Z" />
</g>
<g id="#bcaa7eff">
<path fill="#bcaa7e" opacity="1.00" d=" M 359.40 782.81 C 365.11 782.50 370.84 782.78 376.56 782.63 C 376.52 783.22 376.43 784.41 376.39 785.00 C 374.06 785.37 371.75 785.80 369.58 786.76 C 369.83 785.88 370.06 785.03 370.28 784.17 C 366.60 784.29 362.71 784.79 359.40 782.81 Z" />
</g>
<g id="#cab174ff">
<path fill="#cab174" opacity="1.00" d=" M 392.33 782.65 C 400.27 782.49 408.22 782.82 416.16 782.51 C 416.50 783.18 417.18 784.53 417.52 785.20 C 412.38 784.97 407.24 784.70 402.11 785.14 C 403.20 788.52 404.28 791.90 405.31 795.30 C 405.88 795.15 407.02 794.86 407.59 794.72 C 407.86 815.11 406.20 835.50 406.76 855.90 C 406.54 859.65 408.64 863.17 412.00 864.80 C 411.76 865.47 411.53 866.15 411.30 866.84 C 406.43 867.38 401.52 867.31 396.65 866.82 C 396.56 866.28 396.39 865.20 396.30 864.66 C 400.35 862.77 401.55 858.17 401.56 854.06 C 402.35 837.73 402.52 821.38 402.81 805.04 C 402.99 800.29 403.31 795.43 402.35 790.75 C 401.10 786.28 396.13 785.09 392.13 784.58 C 392.18 784.10 392.28 783.13 392.33 782.65 Z" />
</g>
<g id="#d5c082ff">
<path fill="#d5c082" opacity="1.00" d=" M 449.49 838.24 C 456.86 819.67 464.08 801.03 471.66 782.55 C 479.62 782.64 487.60 782.70 495.56 782.48 C 495.85 783.62 495.89 785.37 494.15 785.09 C 491.83 785.23 489.64 785.99 487.58 787.03 C 487.24 787.18 486.55 787.48 486.21 787.63 C 486.29 786.53 486.38 785.44 486.47 784.36 C 481.94 783.88 477.28 783.42 472.84 784.73 C 471.53 787.89 470.27 791.09 469.15 794.34 C 469.73 794.49 470.88 794.80 471.45 794.95 C 466.29 809.62 460.10 823.93 454.50 838.45 C 450.54 848.67 446.52 858.88 442.18 868.95 C 441.50 868.85 440.13 868.67 439.45 868.58 C 432.97 854.21 427.15 839.54 420.89 825.07 C 417.05 814.78 412.05 804.95 408.35 794.61 C 408.85 794.63 409.85 794.67 410.35 794.69 C 413.37 801.60 415.41 808.96 419.01 815.66 C 421.83 823.18 425.45 830.36 428.24 837.90 C 429.74 841.88 431.41 845.80 433.59 849.47 C 436.86 854.70 436.78 861.43 440.93 866.21 C 443.41 861.94 445.26 857.30 446.43 852.51 C 446.89 851.17 445.77 850.06 445.30 848.95 C 446.62 845.35 448.06 841.79 449.49 838.24 Z" />
</g>
<g id="#e8d9a6ff">
<path fill="#e8d9a6" opacity="1.00" d=" M 513.95 782.63 C 525.07 782.68 536.19 782.66 547.30 782.67 C 547.28 783.18 547.22 784.22 547.19 784.74 C 544.35 785.46 540.86 785.26 538.81 787.71 C 536.30 790.91 536.83 795.20 536.67 799.00 C 536.68 818.99 536.52 838.98 536.77 858.97 C 535.13 857.37 534.39 855.24 534.58 852.99 C 534.72 834.31 534.43 815.63 534.68 796.96 C 534.58 792.49 536.83 788.56 538.85 784.75 C 533.40 783.61 527.61 783.21 522.22 784.83 C 524.55 788.50 526.26 792.60 526.13 797.03 C 526.23 815.68 526.31 834.33 526.23 852.98 C 526.19 856.15 525.75 859.34 524.61 862.33 C 524.45 861.74 524.14 860.57 523.98 859.98 C 524.84 841.02 524.21 822.01 524.41 803.03 C 524.09 798.42 525.12 793.47 523.16 789.14 C 521.47 785.88 517.51 785.49 514.30 784.99 C 514.21 784.40 514.04 783.22 513.95 782.63 Z" />
</g>
<g id="#c6b07eff">
<path fill="#c6b07e" opacity="1.00" d=" M 652.93 782.71 C 667.16 782.65 681.41 782.57 695.65 782.68 C 695.59 783.24 695.48 784.36 695.42 784.92 C 696.13 785.61 696.86 786.31 697.59 787.03 C 697.17 787.14 696.31 787.35 695.89 787.45 C 689.31 785.70 682.44 786.32 675.73 786.55 C 675.73 799.15 675.66 811.75 675.72 824.35 C 678.65 824.50 681.59 824.52 684.53 824.48 C 681.84 826.23 678.62 826.37 675.54 826.63 C 674.14 824.31 673.42 821.71 673.69 819.01 C 674.19 807.47 672.91 795.86 674.57 784.40 C 670.39 784.30 666.21 784.31 662.04 784.51 C 663.58 788.88 665.45 793.25 665.24 797.99 C 665.30 817.68 665.45 837.37 665.17 857.05 C 665.52 860.26 662.39 863.32 663.63 866.31 C 668.24 867.07 673.00 866.89 677.58 866.03 C 672.31 857.63 674.09 847.34 673.75 837.96 C 673.97 834.48 672.78 830.28 675.68 827.62 C 675.67 836.74 675.75 845.87 675.78 854.99 C 675.91 857.95 676.05 861.36 678.42 863.51 C 680.40 865.71 683.52 865.78 686.27 865.81 C 686.49 866.65 686.54 867.50 686.43 868.37 C 675.33 868.26 664.23 868.58 653.15 868.20 C 652.67 864.68 656.98 866.10 658.93 864.81 C 662.86 862.81 663.24 857.91 663.23 854.02 C 663.29 834.68 663.43 815.35 663.22 796.02 C 663.27 792.28 662.65 787.74 658.80 786.03 C 656.73 784.87 652.63 786.15 652.93 782.71 Z" />
<path fill="#c6b07e" opacity="1.00" d=" M 360.68 832.56 C 361.95 819.96 360.47 807.21 361.76 794.64 C 362.96 801.69 361.80 808.85 362.30 815.95 C 362.21 824.77 363.10 833.65 361.87 842.41 C 361.45 842.42 360.60 842.43 360.18 842.43 C 360.58 839.15 360.50 835.84 360.68 832.56 Z" />
</g>
<g id="#c1a971ff">
<path fill="#c1a971" opacity="1.00" d=" M 695.65 782.68 C 702.34 783.23 709.34 784.88 714.52 789.42 C 722.03 795.96 722.73 808.27 717.23 816.28 C 713.20 822.26 706.13 825.18 699.30 826.51 C 701.64 827.86 703.72 829.65 705.11 832.01 C 710.49 840.28 715.17 849.00 721.09 856.92 C 723.67 860.83 727.25 864.58 732.02 865.54 C 733.38 865.80 736.31 866.12 735.14 868.36 C 728.36 868.40 721.58 868.27 714.80 868.31 C 710.28 863.57 707.33 857.67 703.72 852.26 C 700.56 847.38 697.67 842.34 694.56 837.44 C 692.49 834.32 690.36 830.98 686.97 829.18 C 683.48 827.31 679.22 828.98 675.68 827.62 C 675.64 827.37 675.57 826.88 675.54 826.63 C 678.62 826.37 681.84 826.23 684.53 824.48 C 690.85 824.01 697.93 823.45 702.70 818.75 C 708.11 813.42 708.32 804.96 706.78 797.98 C 705.63 792.66 700.77 789.14 695.89 787.45 C 696.31 787.35 697.17 787.14 697.59 787.03 C 696.86 786.31 696.13 785.61 695.42 784.92 C 695.48 784.36 695.59 783.24 695.65 782.68 M 700.17 786.02 C 702.53 789.88 707.24 792.08 708.50 796.68 C 710.36 803.06 709.28 809.96 707.13 816.14 C 705.76 818.59 703.50 820.43 702.09 822.88 C 710.37 823.08 717.62 815.98 718.81 808.01 C 719.14 803.24 719.44 797.85 715.99 794.05 C 712.57 788.73 706.32 786.16 700.17 786.02 M 689.03 827.11 C 693.87 830.58 696.07 836.12 698.86 841.14 C 704.12 848.37 708.12 856.43 713.30 863.71 C 716.65 868.37 723.10 866.31 727.96 866.56 C 725.53 863.49 721.99 861.46 719.87 858.11 C 711.62 848.17 707.23 835.28 697.31 826.72 C 694.96 824.34 691.50 825.74 689.03 827.11 Z" />
</g>
<g id="#ac8944ff">
<path fill="#ac8944" opacity="1.00" d=" M 748.16 784.73 C 748.26 784.19 748.44 783.12 748.53 782.58 C 755.27 782.73 762.01 782.67 768.75 782.65 C 769.95 783.87 771.15 785.11 772.37 786.35 L 771.08 786.42 C 769.10 786.20 770.01 788.88 769.65 790.03 C 770.02 801.41 769.30 812.81 770.17 824.17 C 769.06 834.10 770.39 844.08 769.79 854.03 C 769.92 857.17 768.82 860.94 771.42 863.40 C 771.63 863.66 772.05 864.20 772.26 864.47 C 772.98 865.79 774.40 866.21 775.73 866.73 C 769.37 866.30 763.01 866.86 756.65 866.81 C 756.49 865.73 756.34 864.66 756.20 863.61 C 757.84 861.03 758.56 858.02 758.40 854.98 C 758.42 833.98 758.66 812.96 758.20 791.97 C 757.88 786.86 752.53 784.91 748.16 784.73 Z" />
</g>
<g id="#9d8556ff">
<path fill="#9d8556" opacity="1.00" d=" M 768.75 782.65 C 783.70 782.59 798.64 782.73 813.58 782.63 C 813.70 789.83 814.27 797.00 814.49 804.19 C 810.83 805.55 811.42 801.42 810.66 799.21 C 812.95 794.53 812.11 789.25 811.60 784.29 C 807.59 784.09 803.57 783.94 799.58 784.33 C 797.98 784.25 797.06 785.69 795.98 786.61 C 788.11 786.21 780.23 786.54 772.37 786.35 C 771.15 785.11 769.95 783.87 768.75 782.65 Z" />
</g>
<g id="#b28e48ff">
<path fill="#b28e48" opacity="1.00" d=" M 297.56 784.49 C 302.56 784.25 307.65 783.74 312.61 784.75 C 312.04 786.59 311.31 788.47 311.63 790.44 L 311.68 791.17 C 311.59 791.29 311.41 791.54 311.32 791.67 C 310.32 792.93 309.26 794.30 309.36 796.02 C 308.97 803.68 309.33 811.36 309.09 819.03 C 308.76 831.27 307.81 844.21 313.47 855.53 C 315.06 860.00 319.84 861.68 322.98 864.82 C 318.02 867.14 313.48 862.97 309.47 860.54 C 303.82 855.39 300.67 847.61 300.59 840.00 C 300.30 827.00 300.89 813.99 300.12 801.00 C 299.79 797.63 300.55 794.09 299.39 790.86 C 298.79 808.25 299.14 825.67 299.03 843.07 C 298.19 837.75 298.74 832.33 298.62 826.97 C 298.53 814.85 298.93 802.71 298.33 790.60 C 298.29 788.54 297.98 786.50 297.56 784.49 Z" />
</g>
<g id="#e9cc77ff">
<path fill="#e9cc77" opacity="1.00" d=" M 472.84 784.73 C 477.28 783.42 481.94 783.88 486.47 784.36 C 486.38 785.44 486.29 786.53 486.21 787.63 C 486.55 787.48 487.24 787.18 487.58 787.03 C 486.80 788.17 486.07 789.34 485.26 790.47 C 484.43 791.55 483.09 792.46 483.04 793.97 C 482.10 803.31 483.63 812.66 483.62 822.01 C 483.59 830.69 484.42 839.35 484.20 848.03 C 484.29 854.12 484.01 860.79 487.70 866.02 C 482.57 866.45 477.41 866.49 472.27 866.10 C 474.19 863.04 475.92 859.68 475.75 855.96 C 475.86 840.51 475.73 825.04 474.61 809.63 C 474.11 804.58 475.85 798.86 472.53 794.49 C 472.46 794.03 472.34 793.11 472.28 792.65 C 472.07 793.23 471.66 794.37 471.45 794.95 C 470.88 794.80 469.73 794.49 469.15 794.34 C 470.27 791.09 471.53 787.89 472.84 784.73 Z" />
</g>
<g id="#efd680ff">
<path fill="#efd680" opacity="1.00" d=" M 522.22 784.83 C 527.61 783.21 533.40 783.61 538.85 784.75 C 536.83 788.56 534.58 792.49 534.68 796.96 C 534.43 815.63 534.72 834.31 534.58 852.99 C 534.39 855.24 535.13 857.37 536.77 858.97 C 537.63 862.01 539.65 864.61 542.75 865.63 C 537.68 867.52 532.21 866.34 526.96 867.03 C 524.26 867.48 521.71 866.45 519.21 865.60 C 521.49 864.39 523.09 862.37 523.98 859.98 C 524.14 860.57 524.45 861.74 524.61 862.33 C 525.75 859.34 526.19 856.15 526.23 852.98 C 526.31 834.33 526.23 815.68 526.13 797.03 C 526.26 792.60 524.55 788.50 522.22 784.83 Z" />
</g>
<g id="#efd782ff">
<path fill="#efd782" opacity="1.00" d=" M 572.67 784.40 C 577.35 784.14 582.04 784.10 586.73 784.35 C 584.74 793.95 584.55 803.84 585.43 813.58 C 585.54 818.06 587.09 822.56 586.05 827.03 C 585.44 829.97 585.16 832.97 585.23 835.98 C 585.46 845.99 584.36 856.11 586.56 865.99 C 582.25 867.13 577.68 867.02 573.30 866.47 C 572.81 866.00 571.85 865.04 571.36 864.56 C 574.60 861.65 574.59 857.01 574.61 853.00 C 574.77 833.18 574.74 813.37 574.60 793.55 C 575.49 798.64 574.98 803.82 575.09 808.96 C 575.35 826.08 574.69 843.23 575.35 860.34 C 576.86 855.04 576.38 849.50 576.43 844.08 C 576.26 828.40 576.43 812.73 576.37 797.06 C 576.52 794.62 575.72 792.34 574.18 790.49 C 573.51 789.47 572.97 788.38 572.45 787.32 C 572.51 786.33 572.59 785.36 572.67 784.40 Z" />
</g>
<g id="#dfc77cff">
<path fill="#dfc77c" opacity="1.00" d=" M 614.36 784.22 C 618.81 783.88 623.29 783.70 627.72 784.33 C 627.71 789.09 630.38 794.80 626.75 798.85 C 625.07 793.91 621.49 789.74 616.65 787.70 C 615.83 786.57 615.10 785.39 614.36 784.22 Z" />
</g>
<g id="#d3b363ff">
<path fill="#d3b363" opacity="1.00" d=" M 662.04 784.51 C 666.21 784.31 670.39 784.30 674.57 784.40 C 672.91 795.86 674.19 807.47 673.69 819.01 C 673.42 821.71 674.14 824.31 675.54 826.63 C 675.57 826.88 675.64 827.37 675.68 827.62 C 672.78 830.28 673.97 834.48 673.75 837.96 C 674.09 847.34 672.31 857.63 677.58 866.03 C 673.00 866.89 668.24 867.07 663.63 866.31 C 662.39 863.32 665.52 860.26 665.17 857.05 C 665.45 837.37 665.30 817.68 665.24 797.99 C 665.45 793.25 663.58 788.88 662.04 784.51 Z" />
</g>
<g id="#9a783eff">
<path fill="#9a783e" opacity="1.00" d=" M 795.98 786.61 C 797.06 785.69 797.98 784.25 799.58 784.33 C 803.57 783.94 807.59 784.09 811.60 784.29 C 812.11 789.25 812.95 794.53 810.66 799.21 C 809.24 795.92 807.91 792.34 804.91 790.15 C 802.40 788.00 799.11 787.26 795.98 786.61 Z" />
</g>
<g id="#d1b263ff">
<path fill="#d1b263" opacity="1.00" d=" M 402.11 785.14 C 407.24 784.70 412.38 784.97 417.52 785.20 C 420.73 793.55 424.22 801.79 427.77 810.01 C 425.59 812.74 424.63 816.13 423.70 819.43 C 422.53 817.72 420.92 816.44 419.01 815.66 C 415.41 808.96 413.37 801.60 410.35 794.69 C 409.85 794.67 408.85 794.63 408.35 794.61 C 408.16 794.64 407.78 794.69 407.59 794.72 C 407.02 794.86 405.88 795.15 405.31 795.30 C 404.28 791.90 403.20 788.52 402.11 785.14 Z" />
</g>
<g id="#c39e55ff">
<path fill="#c39e55" opacity="1.00" d=" M 700.17 786.02 C 706.32 786.16 712.57 788.73 715.99 794.05 C 719.44 797.85 719.14 803.24 718.81 808.01 C 717.62 815.98 710.37 823.08 702.09 822.88 C 703.50 820.43 705.76 818.59 707.13 816.14 C 709.28 809.96 710.36 803.06 708.50 796.68 C 707.24 792.08 702.53 789.88 700.17 786.02 Z" />
</g>
<g id="#978153ff">
<path fill="#978153" opacity="1.00" d=" M 769.65 790.03 C 770.01 788.88 769.10 786.20 771.08 786.42 C 770.64 792.61 771.34 798.81 771.12 805.02 C 771.35 810.63 770.59 816.24 771.13 821.85 C 777.08 821.90 783.04 821.84 789.00 821.75 C 790.97 821.78 792.78 820.96 794.57 820.24 C 793.97 821.35 793.24 822.47 792.97 823.73 C 793.37 825.06 794.09 826.25 794.77 827.47 C 787.32 824.40 778.97 826.23 771.13 825.68 C 771.15 838.24 770.84 850.84 771.42 863.40 C 768.82 860.94 769.92 857.17 769.79 854.03 C 770.39 844.08 769.06 834.10 770.17 824.17 C 769.30 812.81 770.02 801.41 769.65 790.03 Z" />
</g>
<g id="#dfc996ff">
<path fill="#dfc996" opacity="1.00" d=" M 483.04 793.97 C 483.09 792.46 484.43 791.55 485.26 790.47 C 484.69 794.96 484.82 799.49 485.07 804.00 C 485.32 817.66 485.68 831.33 486.25 844.98 C 486.64 850.35 485.96 855.97 487.80 861.12 C 489.31 865.16 493.98 865.81 497.69 866.30 C 497.70 866.86 497.73 867.98 497.74 868.54 C 486.49 868.12 475.23 868.46 463.97 868.32 C 464.04 867.72 464.19 866.51 464.27 865.90 C 467.05 865.66 470.23 865.44 472.15 863.09 C 473.96 861.22 473.86 858.48 473.89 856.07 C 473.84 835.54 472.78 815.01 472.53 794.49 C 475.85 798.86 474.11 804.58 474.61 809.63 C 475.73 825.04 475.86 840.51 475.75 855.96 C 475.92 859.68 474.19 863.04 472.27 866.10 C 477.41 866.49 482.57 866.45 487.70 866.02 C 484.01 860.79 484.29 854.12 484.20 848.03 C 484.42 839.35 483.59 830.69 483.62 822.01 C 483.63 812.66 482.10 803.31 483.04 793.97 Z" />
</g>
<g id="#eadda5ff">
<path fill="#eadda5" opacity="1.00" d=" M 574.18 790.49 C 575.72 792.34 576.52 794.62 576.37 797.06 C 576.43 812.73 576.26 828.40 576.43 844.08 C 576.38 849.50 576.86 855.04 575.35 860.34 C 574.69 843.23 575.35 826.08 575.09 808.96 C 574.98 803.82 575.49 798.64 574.60 793.55 C 574.49 792.79 574.28 791.25 574.18 790.49 Z" />
</g>
<g id="#c6b284ff">
<path fill="#c6b284" opacity="1.00" d=" M 363.69 800.03 C 363.62 797.51 363.59 794.92 364.65 792.58 C 365.11 809.13 364.83 825.72 365.05 842.29 L 364.99 843.69 C 362.84 839.78 363.82 835.25 363.68 831.03 C 363.59 820.69 363.97 810.36 363.69 800.03 Z" />
</g>
<g id="#dcd1a8ff">
<path fill="#dcd1a8" opacity="1.00" d=" M 615.39 810.30 C 616.32 810.40 617.27 810.50 618.22 810.61 C 617.96 819.52 617.51 828.45 618.23 837.35 C 617.29 837.38 616.37 837.41 615.44 837.45 C 615.04 836.10 614.70 834.75 614.49 833.37 C 615.01 833.08 616.05 832.52 616.57 832.23 C 617.78 826.95 617.47 821.46 616.77 816.14 C 615.44 816.87 614.11 817.61 612.82 818.41 C 614.21 815.89 614.72 813.06 615.39 810.30 Z" />
</g>
<g id="#8f7e61ff">
<path fill="#8f7e61" opacity="1.00" d=" M 798.78 810.65 C 799.75 810.53 800.72 810.44 801.71 810.36 C 801.73 819.25 801.71 828.14 801.77 837.03 L 801.28 837.64 C 800.78 837.56 799.78 837.40 799.28 837.32 C 798.62 834.56 797.99 831.75 796.50 829.31 C 797.67 830.13 798.90 830.92 800.13 831.69 C 800.62 826.57 800.80 821.38 799.88 816.30 C 798.64 817.51 797.54 819.05 795.76 819.45 C 797.58 816.85 798.58 813.80 798.78 810.65 Z" />
</g>
<g id="#d8b96aff">
<path fill="#d8b96a" opacity="1.00" d=" M 423.70 819.43 C 424.63 816.13 425.59 812.74 427.77 810.01 C 432.29 820.62 436.43 831.40 441.18 841.92 C 442.33 844.63 443.38 847.39 444.54 850.11 C 444.73 849.82 445.11 849.24 445.30 848.95 C 445.77 850.06 446.89 851.17 446.43 852.51 C 445.26 857.30 443.41 861.94 440.93 866.21 C 436.78 861.43 436.86 854.70 433.59 849.47 C 431.41 845.80 429.74 841.88 428.24 837.90 C 425.45 830.36 421.83 823.18 419.01 815.66 C 420.92 816.44 422.53 817.72 423.70 819.43 Z" />
</g>
<g id="#e4cb7cff">
<path fill="#e4cb7c" opacity="1.00" d=" M 612.82 818.41 C 614.11 817.61 615.44 816.87 616.77 816.14 C 617.47 821.46 617.78 826.95 616.57 832.23 C 616.05 832.52 615.01 833.08 614.49 833.37 C 613.81 830.40 611.69 828.18 609.17 826.65 C 608.25 825.91 607.35 825.17 606.46 824.43 C 608.54 823.21 611.13 822.20 611.70 819.57 L 611.98 818.91 L 612.82 818.41 Z" />
</g>
<g id="#a1773eff">
<path fill="#a1773e" opacity="1.00" d=" M 799.88 816.30 C 800.80 821.38 800.62 826.57 800.13 831.69 C 798.90 830.92 797.67 830.13 796.50 829.31 C 795.80 828.79 795.22 828.17 794.77 827.47 C 794.09 826.25 793.37 825.06 792.97 823.73 C 793.24 822.47 793.97 821.35 794.57 820.24 C 794.87 820.04 795.47 819.65 795.76 819.45 C 797.54 819.05 798.64 817.51 799.88 816.30 Z" />
</g>
<g id="#c3a156ff">
<path fill="#c3a156" opacity="1.00" d=" M 689.03 827.11 C 691.50 825.74 694.96 824.34 697.31 826.72 C 707.23 835.28 711.62 848.17 719.87 858.11 C 721.99 861.46 725.53 863.49 727.96 866.56 C 723.10 866.31 716.65 868.37 713.30 863.71 C 708.12 856.43 704.12 848.37 698.86 841.14 C 696.07 836.12 693.87 830.58 689.03 827.11 Z" />
</g>
<g id="#1a1001ff">
<path fill="#1a1001" opacity="1.00" d=" M 441.18 841.92 C 444.32 842.27 446.11 839.80 448.16 837.92 L 449.49 838.24 C 448.06 841.79 446.62 845.35 445.30 848.95 C 445.11 849.24 444.73 849.82 444.54 850.11 C 443.38 847.39 442.33 844.63 441.18 841.92 Z" />
</g>
<g id="#a3834cff">
<path fill="#a3834c" opacity="1.00" d=" M 265.23 857.12 C 268.55 853.12 270.18 848.11 272.80 843.71 C 273.34 843.74 274.41 843.80 274.95 843.84 C 274.30 852.09 272.46 860.21 271.25 868.39 C 250.18 868.28 229.11 868.34 208.04 868.29 C 206.71 868.34 204.74 868.29 204.98 866.46 C 207.70 865.94 210.46 865.38 212.78 863.79 C 212.65 864.75 212.54 865.73 212.45 866.72 C 218.14 866.87 223.84 866.66 229.53 866.71 C 229.29 866.16 228.80 865.07 228.56 864.53 C 235.04 864.63 241.53 864.51 248.02 864.53 C 254.41 864.62 261.30 862.43 265.23 857.12 Z" />
</g>
<g id="#e2c979ff">
<path fill="#e2c979" opacity="1.00" d=" M 623.35 860.06 C 628.24 859.52 629.94 854.62 631.85 850.85 C 631.35 856.14 631.35 861.56 629.86 866.71 C 624.50 867.42 618.95 867.43 613.89 865.32 C 605.33 863.91 596.42 866.13 587.92 864.40 C 595.27 864.83 602.65 864.48 610.01 864.55 C 614.87 864.75 619.37 862.61 623.35 860.06 Z" />
</g>
<g id="#9c763cff">
<path fill="#9c763c" opacity="1.00" d=" M 809.18 860.20 C 811.52 857.60 813.16 854.43 815.77 852.06 C 815.39 856.74 816.02 862.22 813.10 866.18 C 809.06 867.15 804.68 866.89 800.61 866.19 C 803.33 864.01 806.66 862.65 809.18 860.20 Z" />
</g>
<g id="#c6b990ff">
<path fill="#c6b990" opacity="1.00" d=" M 390.61 865.86 C 392.55 865.74 394.47 865.34 396.30 864.66 C 396.39 865.20 396.56 866.28 396.65 866.82 C 401.52 867.31 406.43 867.38 411.30 866.84 C 411.53 866.15 411.76 865.47 412.00 864.80 C 414.05 865.85 419.00 864.76 418.17 868.34 C 409.03 868.33 399.89 868.24 390.75 868.34 C 390.71 867.72 390.64 866.48 390.61 865.86 Z" />
</g>
<g id="#e4d9adff">
<path fill="#e4d9ad" opacity="1.00" d=" M 514.34 868.41 C 514.35 867.49 514.45 866.58 514.66 865.70 C 516.16 865.67 517.69 865.47 519.21 865.60 C 521.71 866.45 524.26 867.48 526.96 867.03 C 532.21 866.34 537.68 867.52 542.75 865.63 C 544.52 865.38 548.20 865.56 547.17 868.40 C 536.22 868.35 525.28 868.34 514.34 868.41 Z" />
</g>
</svg>
